<svg width="974" height="432" viewBox="0 0 974 432" fill="none" xmlns="http://www.w3.org/2000/svg">
<path d="M150.912 212.456C163.2 215.336 172.704 221.288 179.424 230.312C186.336 239.144 189.792 249.416 189.792 261.128C189.792 278.984 183.84 292.808 171.936 302.6C160.224 312.2 143.328 317 121.248 317H14.4V113.096H118.368C139.104 113.096 155.424 117.608 167.328 126.632C179.232 135.656 185.184 148.808 185.184 166.088C185.184 177.992 182.016 188.072 175.68 196.328C169.536 204.392 161.28 209.768 150.912 212.456ZM78.336 192.584H103.104C108.864 192.584 113.088 191.432 115.776 189.128C118.656 186.824 120.096 183.272 120.096 178.472C120.096 173.48 118.656 169.832 115.776 167.528C113.088 165.032 108.864 163.784 103.104 163.784H78.336V192.584ZM107.424 265.736C113.184 265.736 117.408 264.68 120.096 262.568C122.976 260.264 124.416 256.616 124.416 251.624C124.416 241.832 118.752 236.936 107.424 236.936H78.336V265.736H107.424Z" fill="#FD3E90"/>
<rect x="42" y="151" width="95" height="131" fill="#FD3E90"/>
<path d="M63 214C63 190.252 82.2518 171 106 171H115V257H106C82.2518 257 63 237.748 63 214V214Z" fill="white"/>
<path d="M298.456 204.728C304.6 206.168 309.352 209.144 312.712 213.656C316.168 218.072 317.896 223.208 317.896 229.064C317.896 237.992 314.92 244.904 308.968 249.8C303.112 254.6 294.664 257 283.624 257H230.2V155.048H282.184C292.552 155.048 300.712 157.304 306.664 161.816C312.616 166.328 315.592 172.904 315.592 181.544C315.592 187.496 314.008 192.536 310.84 196.664C307.768 200.696 303.64 203.384 298.456 204.728ZM262.168 194.792H274.552C277.432 194.792 279.544 194.216 280.888 193.064C282.328 191.912 283.048 190.136 283.048 187.736C283.048 185.24 282.328 183.416 280.888 182.264C279.544 181.016 277.432 180.392 274.552 180.392H262.168V194.792ZM276.712 231.368C279.592 231.368 281.704 230.84 283.048 229.784C284.488 228.632 285.208 226.808 285.208 224.312C285.208 219.416 282.376 216.968 276.712 216.968H262.168V231.368H276.712ZM367.23 174.776C375.39 174.776 382.734 176.456 389.262 179.816C395.79 183.176 400.878 188.024 404.526 194.36C408.27 200.6 410.142 207.944 410.142 216.392C410.142 224.84 408.27 232.232 404.526 238.568C400.878 244.808 395.79 249.608 389.262 252.968C382.734 256.328 375.39 258.008 367.23 258.008C359.07 258.008 351.726 256.328 345.198 252.968C338.67 249.608 333.534 244.808 329.79 238.568C326.142 232.232 324.318 224.84 324.318 216.392C324.318 207.944 326.142 200.6 329.79 194.36C333.534 188.024 338.67 183.176 345.198 179.816C351.726 176.456 359.07 174.776 367.23 174.776ZM367.23 202.424C364.254 202.424 361.758 203.624 359.742 206.024C357.726 208.328 356.718 211.784 356.718 216.392C356.718 221 357.678 224.504 359.598 226.904C361.614 229.208 364.158 230.36 367.23 230.36C370.206 230.36 372.702 229.208 374.718 226.904C376.734 224.504 377.742 221 377.742 216.392C377.742 211.784 376.734 208.328 374.718 206.024C372.702 203.624 370.206 202.424 367.23 202.424ZM528.616 175.208C538.984 175.208 547 178.328 552.664 184.568C558.424 190.808 561.304 199.256 561.304 209.912V257H529.48V213.944C529.48 210.488 528.424 207.8 526.312 205.88C524.296 203.864 521.56 202.856 518.104 202.856C514.552 202.856 511.768 203.864 509.752 205.88C507.736 207.8 506.728 210.488 506.728 213.944V257H474.904V213.944C474.904 210.488 473.848 207.8 471.736 205.88C469.72 203.864 466.984 202.856 463.528 202.856C459.976 202.856 457.192 203.864 455.176 205.88C453.16 207.8 452.152 210.488 452.152 213.944V257H420.184V175.784H452.152V186.728C454.456 183.272 457.576 180.488 461.512 178.376C465.544 176.264 470.248 175.208 475.624 175.208C481.48 175.208 486.664 176.504 491.176 179.096C495.688 181.592 499.288 185.144 501.976 189.752C504.952 185.528 508.744 182.072 513.352 179.384C517.96 176.6 523.048 175.208 528.616 175.208ZM607.121 232.808H637.937V257H575.153V155.048H607.121V232.808ZM677.229 174.776C682.509 174.776 687.069 175.88 690.909 178.088C694.749 180.2 697.677 183.128 699.693 186.872V175.784H731.517V257H699.693V245.912C697.677 249.656 694.749 252.632 690.909 254.84C687.069 256.952 682.509 258.008 677.229 258.008C670.893 258.008 665.181 256.376 660.093 253.112C655.005 249.752 650.973 244.952 647.997 238.712C645.117 232.376 643.677 224.936 643.677 216.392C643.677 207.848 645.117 200.456 647.997 194.216C650.973 187.88 655.005 183.08 660.093 179.816C665.181 176.456 670.893 174.776 677.229 174.776ZM687.885 202.712C684.429 202.712 681.597 203.912 679.389 206.312C677.181 208.712 676.077 212.072 676.077 216.392C676.077 220.712 677.181 224.072 679.389 226.472C681.597 228.872 684.429 230.072 687.885 230.072C691.341 230.072 694.173 228.872 696.381 226.472C698.589 224.072 699.693 220.712 699.693 216.392C699.693 212.072 698.589 208.712 696.381 206.312C694.173 203.912 691.341 202.712 687.885 202.712ZM800.16 174.776C806.496 174.776 812.208 176.456 817.296 179.816C822.384 183.08 826.368 187.88 829.248 194.216C832.224 200.456 833.712 207.848 833.712 216.392C833.712 224.936 832.224 232.376 829.248 238.712C826.368 244.952 822.384 249.752 817.296 253.112C812.208 256.376 806.496 258.008 800.16 258.008C794.88 258.008 790.32 256.952 786.48 254.84C782.736 252.632 779.856 249.656 777.84 245.912V257H745.872V150.44H777.84V186.872C779.856 183.128 782.736 180.2 786.48 178.088C790.32 175.88 794.88 174.776 800.16 174.776ZM789.504 202.712C786.048 202.712 783.216 203.912 781.008 206.312C778.8 208.712 777.696 212.072 777.696 216.392C777.696 220.712 778.8 224.072 781.008 226.472C783.216 228.872 786.048 230.072 789.504 230.072C792.96 230.072 795.792 228.872 798 226.472C800.208 224.072 801.312 220.712 801.312 216.392C801.312 212.072 800.208 208.712 798 206.312C795.792 203.912 792.96 202.712 789.504 202.712ZM875.715 174.776C886.755 174.776 895.539 177.464 902.067 182.84C908.691 188.12 912.867 195.128 914.595 203.864H884.787C883.539 199.256 880.275 196.952 874.995 196.952C872.019 196.952 870.531 198.104 870.531 200.408C870.531 202.04 871.587 203.288 873.699 204.152C875.907 205.016 879.363 205.928 884.067 206.888C890.211 208.04 895.443 209.432 899.763 211.064C904.179 212.6 907.971 215.144 911.139 218.696C914.307 222.248 915.891 227.096 915.891 233.24C915.891 238.04 914.547 242.312 911.859 246.056C909.171 249.8 905.235 252.728 900.051 254.84C894.867 256.952 888.771 258.008 881.763 258.008C870.051 258.008 860.739 255.512 853.827 250.52C846.915 245.528 842.643 238.328 841.011 228.92H871.683C872.259 233.624 875.571 235.976 881.619 235.976C884.883 235.976 886.515 234.824 886.515 232.52C886.515 230.696 885.411 229.352 883.203 228.488C880.995 227.624 877.443 226.76 872.547 225.896C866.307 224.648 861.123 223.304 856.995 221.864C852.963 220.424 849.411 217.976 846.339 214.52C843.267 211.064 841.731 206.312 841.731 200.264C841.731 195.368 843.027 191 845.619 187.16C848.211 183.32 852.051 180.296 857.139 178.088C862.227 175.88 868.419 174.776 875.715 174.776ZM955.65 226.472V257H923.97V226.472H955.65Z" fill="black"/>
</svg>
