<svg width="358" height="270" viewBox="0 0 358 270" fill="none" xmlns="http://www.w3.org/2000/svg">
<path fill-rule="evenodd" clip-rule="evenodd" d="M111.604 122.313C112.906 135.189 114.209 148.066 115.512 160.942C122.604 156.98 129.696 153.018 136.788 149.056V178.39V186.1C136.788 186.783 136.375 189.126 136.788 189.717C137.139 190.218 139.738 190.233 140.353 190.317C144.363 190.867 148.382 191.356 152.408 191.791C163.017 192.938 174.371 194.581 185.021 193.263C194.278 192.117 203.252 188.894 211.709 185.143C214.679 183.827 217.606 182.417 220.48 180.911C221.089 180.592 223.301 179.838 223.632 179.188C223.902 178.657 223.268 176.791 223.183 176.233C222.826 173.88 222.468 171.528 222.111 169.175L217.119 136.321L226.548 145.539C227.287 146.261 228.69 148.312 229.712 148.632C230.461 148.866 232.317 148.14 233.058 148C238.397 146.993 243.736 145.985 249.075 144.979C250.319 144.744 253.122 144.753 254.171 144.017C254.735 143.621 254.762 142.815 254.961 142.051C256.263 137.056 257.566 132.062 258.867 127.068C259.102 126.168 260.411 123.332 260.078 122.426C259.959 122.101 259.381 121.879 259.028 121.668C250.97 116.849 242.911 112.031 234.854 107.213C230.439 104.573 226.025 101.934 221.61 99.2945C219.762 98.1885 217.49 96.1962 215.395 95.5777C214.094 95.1938 212.202 95.4814 210.856 95.4436C208.121 95.3673 205.386 95.2909 202.651 95.2146C202.223 95.2028 200.723 94.9038 200.363 95.1508C200.063 95.3563 200.187 95.6427 200.089 96.1325C199.848 97.329 199.847 98.619 199.728 99.8335C199.633 100.808 199.822 102.595 199.373 103.477C199.086 104.041 199.45 103.816 199.062 104.089C198.601 104.413 197.127 104.309 196.578 104.371C193.898 104.676 191.217 104.981 188.537 105.285C185.351 105.648 182.129 106.328 178.928 106.014C174.074 105.54 168.841 105.564 164.076 104.563C162.837 104.302 162.391 103.619 161.436 102.686C159.571 100.863 157.726 99.0187 155.84 97.2153C154.916 96.3315 155.312 96.4814 154.36 96.8165C153.166 97.2364 151.955 98.2502 150.875 98.8944C146.736 101.363 142.596 103.831 138.457 106.3L113.185 121.37C112.658 121.684 112.131 121.999 111.604 122.313Z" fill="#FD3E90"/>
<path fill-rule="evenodd" clip-rule="evenodd" d="M353.321 123.914C348.111 143.276 337.634 164.388 316.525 170.56C311.393 172.06 306.401 173.193 301.071 172.621C300.563 172.567 300.139 172.637 299.656 172.646C298.792 172.662 299.538 172.966 298.568 172.673C297.812 172.444 297.105 171.873 296.317 171.62C294.223 170.949 291.99 170.82 289.861 170.277C284.63 168.945 279.24 167.301 274.172 165.463C271.785 164.599 269.592 163.394 267.347 162.235C265.065 161.058 262.647 160.326 260.339 159.246C258.516 158.393 255.392 157.28 254.11 155.679C252.742 153.971 254.634 150.335 255.175 148.52C257.013 142.342 259.202 136.255 260.584 129.954C265.355 135.367 271.978 138.72 278.833 140.882C282.553 142.055 286.38 142.903 290.248 143.434C293.761 143.916 297.551 144.499 301.072 143.815C303.73 143.298 307.066 142.102 308.965 140.116C309.642 139.407 310.455 138.107 310.076 137.077C309.594 135.77 308.19 136.385 307.43 135.409C306.768 134.559 306.872 132.572 306.661 131.537C306.288 129.705 305.775 127.923 305.149 126.16C303.935 122.737 302.421 119.305 302.059 115.662C301.744 112.502 302.479 109.513 304.089 106.771C304.85 105.474 306.762 101.947 308.627 102.094C310.675 102.255 307.913 110.706 307.822 112.43C307.464 119.264 308.401 126.546 311.983 132.537C313.355 134.83 315.338 137.501 318.267 137.785C321.369 138.086 323.871 135.697 325.347 133.279C328.95 127.381 327.134 119.288 325.309 113.106C323.071 105.522 317.229 100.295 313.536 93.4835C319.05 94.0261 322.004 97.4558 324.833 101.807C327.95 106.597 330.375 112.349 331.571 117.922C332.175 120.739 331.758 123.566 331.762 126.41C331.763 127.355 331.763 130.84 333.336 130.703C335.018 130.557 335.595 126.626 335.842 125.426C336.409 122.676 337.022 119.925 337.514 117.161C338.386 112.27 338.773 107.261 339.816 102.404C339.992 101.584 340.343 99.3058 341.599 99.9208C342.567 100.394 342.411 103.917 342.447 104.736C342.534 106.754 342.656 108.772 342.673 110.792C342.697 113.786 342.088 116.885 342.387 119.86C342.582 121.804 343.648 123.953 344.969 121.331C346.28 118.73 346.547 115.487 347.277 112.691C348.045 109.755 348.837 106.776 350.466 104.168C350.918 103.444 351.404 102.296 352.408 102.636C353.138 102.884 353.676 104.577 353.902 105.174C354.92 107.875 354.747 110.877 354.683 113.704C354.604 117.168 354.224 120.555 353.321 123.914ZM251.737 128.938C251.458 128.85 250.276 128.741 249.983 128.715C249.639 128.686 250.029 128.066 249.197 128.242C249.358 128.632 249.643 128.892 250.053 129.022C248.802 129.437 247.88 128.414 247.024 128.282C246.206 128.156 246.171 128.282 245.363 129.128C244.488 128.083 244.652 128.735 243.933 128.735C243.671 128.736 243.66 129.123 243.234 129.076C242.862 129.036 242.823 128.483 242.603 128.418C241.409 128.065 240.181 129.845 238.826 128.301C238.498 129.907 234.739 127.895 233.293 128.177C231.777 128.472 232.431 129.005 231.206 128.095C230.038 127.229 230.364 127.804 229.006 128.514C229.038 128.497 228.239 129.024 228.314 129.033C227.374 128.925 227.427 127.974 226.237 128.024C224.977 128.078 224.439 129.045 223.285 127.855C223.035 128.746 222.983 128.362 222.392 128.587C222.067 128.663 221.783 128.579 221.539 128.336C221.465 128.581 221.303 128.732 221.051 128.787C220.408 128.843 219.2 128.931 218.615 128.628C217.738 128.172 218.443 127.997 217.835 127.485C217.562 128.897 216.965 128.597 215.704 128.729C214.743 128.83 214.531 128.541 213.613 128.401C212.708 128.262 211.54 128.606 210.657 128.752C210.293 128.813 209.805 129.062 209.434 128.975C209.1 128.896 208.957 128.642 208.758 128.575C208.515 128.496 208.567 128.288 208.148 128.187C207.86 128.119 207.343 128.384 207.054 128.429C204.997 128.756 203.022 128.76 201.06 127.968C202.026 129.63 198.801 128.732 198.226 128.044C197.508 129.146 196.638 128.368 195.19 128.454C193.795 128.537 191.697 128.955 191.131 127.255C191.021 127.6 190.229 128.604 189.914 128.757C189 129.2 188.891 128.544 188.041 128.277C186.883 127.913 187.125 128.604 186.407 128.744C185.196 128.981 184.541 128.146 183.471 127.702C183.426 128.392 183.403 128.817 182.793 129.247C182.253 127.323 180.327 129.404 180.658 126.833C179.925 127.3 178.894 127.659 178.685 128.604C179.911 128.273 178.816 129.058 178.764 129.084C178.602 129.167 178.055 128.415 177.928 128.309C177.893 128.663 177.859 129.018 177.824 129.373C177.336 129.134 176.878 128.706 176.482 128.492C176.124 128.299 176.636 127.897 176.033 127.869C175.715 127.854 175.383 128.528 175.049 128.586C174.539 128.673 174.784 127.957 174.571 127.981C174.245 128.017 173.715 128.483 173.469 128.474C172.663 128.445 173.208 128.077 172.593 127.909C171.493 127.607 171.563 128.312 170.773 128.566C168.963 129.147 169.145 126.471 167.305 128.256C166.864 128.683 166.581 129.342 165.978 129.306C164.728 129.229 165.167 127.779 165.421 127.069C165.683 127.196 160.857 129.623 160.895 129.528C160.925 128.946 161.684 128.497 161.006 127.98C160.451 129.146 159.868 129.166 158.588 129.383C157.966 129.488 157.844 129.629 157.178 129.376C156.754 129.215 156.47 128.553 156.048 128.517C156.105 128.522 155.331 129.098 155.213 129.15C154.515 129.458 154.073 129.109 153.395 129.236C152.816 129.344 152.588 129.825 152.013 129.693C151.245 129.518 151.696 128.62 150.639 128.87C150.278 128.956 150.061 129.637 149.492 129.778C148.604 129.998 147.517 129.588 146.579 129.802C145.835 129.972 145.283 130.044 144.632 130.079C144.106 130.108 144.322 129.708 143.354 130.18L142.944 129.167C142.459 129.594 141.975 130.02 141.49 130.447C141.399 130.065 141.34 129.678 141.316 129.285C140.593 129.994 139.683 130.115 138.711 130.179C137.66 130.248 136.876 130.472 135.852 130.66C135.529 130.72 134.695 130.815 134.429 130.704C134.468 130.72 133.931 130.502 134.093 130.543C134.024 130.404 133.959 130.263 133.899 130.119C133.809 129.719 133.515 129.702 133.019 130.066C132.762 130.028 132.264 129.698 132.008 129.779C131.348 129.989 131.438 130.49 130.78 130.416C130.353 130.368 130.135 129.751 129.691 129.709C129.011 129.645 128.421 130.39 127.809 130.553C129.672 130.058 125.392 130.442 126.723 130.476C125.85 130.454 124.945 130.412 124.139 130.794C123.693 130.496 124.234 129.896 123.784 129.65C123.376 129.426 123.344 130.017 123.296 130.03C123.554 129.959 123.425 130.461 123.168 130.551C122.365 130.829 121.722 130.121 121.681 129.418C120.999 130.424 120.807 130.02 119.804 130.082C118.814 130.143 117.961 130.651 116.971 130.641C115.013 130.623 113.685 129.957 113.031 128.246C115.117 128.495 117.217 127.181 119.257 127.491C119.928 127.592 120.346 128.085 120.934 127.998C121.657 127.89 122.163 127.117 123.091 127.034C125.137 126.851 127.155 127.029 129.216 126.722C131.677 126.355 134.246 126.137 136.731 126.316C138.651 126.455 140.206 125.736 142.154 125.597C144.672 125.418 147.21 125.386 149.733 125.256C152.324 125.123 155.113 124.718 157.697 124.848C158.504 124.888 159.199 124.966 159.999 124.919C160.338 124.899 160.659 124.674 161.014 124.707C161.477 124.751 161.676 125.215 162.156 125.199C162.971 125.172 163.843 124.514 164.813 124.496C166.407 124.466 167.995 124.47 169.593 124.381C171.001 124.302 172.508 123.981 173.909 123.998C174.897 124.01 175.141 124.834 175.717 124.92C176.753 125.072 181.991 122.154 182.444 124.774C185.171 122.946 188.828 124.493 191.864 124.15C195.763 123.709 199.734 124.102 203.661 123.945C207.655 123.785 211.765 123.933 215.744 124.302C217.393 124.455 218.985 124.598 220.638 124.505C221.375 124.464 222.227 124.28 222.963 124.446C223.142 124.487 224.508 125.421 224.339 125.447C225.085 124.791 224.58 124.695 225.893 124.661C226.906 124.635 227.863 124.85 228.869 124.908C230.676 125.012 232.496 124.767 234.299 124.821C235.804 124.867 237.276 125.084 238.789 125.094C240.42 125.106 242.346 125.151 243.526 126.438C243.401 126.034 243.277 125.63 243.152 125.226C244.973 125.365 246.771 126.001 248.612 125.704C248.146 126.141 247.674 126.497 247.496 127.138C248.488 127.014 249.16 126.336 250.205 126.331C251.083 126.326 251.266 126.756 252.192 126.2C252.306 126.882 252.42 127.564 252.534 128.246C253.817 127.951 252.975 127.014 253.069 126.17C254.112 126.476 254.995 126.124 254.584 127.593C254.267 128.725 252.823 129.283 251.737 128.938ZM249.934 141.552C249.486 142.783 245.616 142.08 244.7 141.949C243.518 141.782 242.165 141.516 241.076 141.384C240.946 141.213 240.789 141.069 240.607 140.95C240.469 141.137 240.296 141.27 240.087 141.347C239.587 141.454 239.585 141.96 238.928 141.848C238.897 142.596 239.428 142.171 239.835 142.442C238.81 143.114 239.279 142.341 238.704 142.353C238.562 142.155 238.363 142.077 238.109 142.12C237.785 142.202 237.487 142.338 237.214 142.527C236.957 142.792 236.738 142.805 236.556 142.568C236.381 142.396 236.167 142.29 235.915 142.25C234.906 142.41 234.624 142.848 233.488 142.777C231.864 142.674 230.108 143.093 228.51 142.873C227.52 142.736 225.865 141.213 225.415 142.698C224.73 141.597 223.64 140.848 222.984 139.723C226.038 139.55 229.091 139.344 232.147 139.236C234.823 139.142 237.751 139.437 240.251 139.313C242.594 139.198 245.075 138.944 247.466 138.735C250.002 138.513 250.841 139.058 249.934 141.552ZM170.265 141.734C171.374 142.034 172.43 141.353 173.506 141.568C173.861 141.64 174.597 142.273 174.759 142.286C175.055 142.309 175.926 141.687 176.299 141.603C178.661 141.077 181.522 141.133 183.884 141.456C185.135 141.627 185.327 141.067 186.42 140.795C187.555 140.511 189.169 140.729 190.364 140.651C193.176 140.467 195.988 140.598 198.781 140.397C201.649 140.19 204.502 140.078 207.371 139.934C209.326 139.835 214.022 138.744 215.642 140.164C216.978 141.335 215.257 143.369 213.921 143.833C212.922 144.179 212.443 143.449 211.701 143.519C210.857 143.598 211.151 144.575 210.397 143.669C209.93 144.57 206.994 144.186 206.152 144.245C204.319 144.375 202.767 144.735 201.519 143.061C201.604 143.543 201.688 144.027 201.773 144.509C200.118 143.644 198.341 143.921 196.905 144.223C196.193 144.372 194.009 145.405 193.238 144.96C192.708 144.653 193.643 144.129 192.748 143.868C192.279 143.73 191.47 144.493 190.897 144.455C189.311 144.348 189.761 143.304 188.203 144.633C187.676 144.186 187.5 143.426 187.57 142.775C186.438 143.72 186.533 145.295 184.51 145.006C183.756 144.899 183.618 144.146 183.225 144.007C182.387 143.711 182.292 144.243 181.567 144.665C181.293 144.823 180.959 145.079 180.637 145.111C179.975 145.176 179.87 144.878 179.779 144.888C179.338 144.935 178.783 145.154 178.261 144.998C177.791 144.857 177.654 144.046 176.828 144.236C176.036 144.418 176.03 144.944 176.173 145.731C175.393 145.652 174.921 145.227 174.337 144.766C173.748 146.111 172.508 144.997 171.822 146.132C170.928 145.087 170.355 145.375 169.246 144.355C169.3 144.78 169.355 145.206 169.409 145.632C168.544 145.469 168.159 144.871 167.42 145.662C166.704 144.355 164.531 146.217 163.415 144.955C162.918 146.553 159.627 146.171 158.237 146.199C157.005 146.223 156.093 146.125 154.89 146.405C153.826 146.652 152.352 146.909 151.352 146.795C150.699 146.721 149.984 146.604 149.17 146.691C147.996 146.815 146.982 147.41 145.766 147.129C143.935 146.705 142.813 144.351 144.852 143.317C146.248 142.609 148.762 142.871 150.298 142.74C152.843 142.524 155.696 142.07 158.244 142.276C160.233 142.437 162.045 141.973 164.073 141.777C165.6 141.629 168.103 141.363 169.1 142.845C169.482 142.412 169.442 141.511 170.265 141.734ZM142.401 162.016C142.128 160.683 153.765 159.949 154.92 159.862C157.345 159.679 159.776 159.549 162.207 159.488C164.205 159.439 166.07 159.812 168.069 159.512C169.935 159.232 172.188 158.657 173.813 159.951C174.052 158.181 181.056 159.043 182.389 159.048C188.19 159.068 193.742 159.082 199.353 158.73C202.56 158.529 205.965 158.259 209.173 158.416C210.619 158.487 211.784 158.864 213.223 158.536C214.161 158.323 215.172 157.878 216.07 158.507C217.12 159.243 217.569 161.741 216.846 162.783C216.319 163.543 215.852 163.459 215.01 163.327C213.716 163.126 212.754 162.832 211.435 163.347C211.648 163.264 210.55 163.504 210.641 163.497C209.147 163.606 207.096 164.628 205.808 163.45C206.324 163.539 207.074 162.637 206.424 162.562C205.935 162.507 205.625 163.02 205.244 163.191C203.939 163.779 203.272 163.595 202.493 162.363C200.922 163.694 200.753 163.325 200.063 161.687C199.532 162.087 199.418 163.034 199.001 163.344C198.938 163.39 199.196 163.966 198.894 163.942C198.614 163.92 198.522 163.47 198.307 163.435C198.17 163.412 198.098 163.018 197.966 162.994C197.824 162.968 197.677 163.22 197.515 163.213C197.084 163.193 195.85 164.092 196.292 162.83C195.638 163.644 195.357 163.125 195.121 162.384C194.365 162.946 193.611 163.508 192.855 164.07C192.504 163.114 191.9 163.374 191.14 163.708C191.369 163.044 191.225 162.416 190.651 162.878C190.317 163.145 190.094 163.993 189.754 164.353C188.375 162.987 187.874 163.362 185.969 163.539C185.242 163.607 184.339 163.739 183.689 163.308C183.118 162.931 182.795 161.544 181.819 162.664C182.036 162.415 181.695 164.329 181.635 164.633C181.205 164.349 180.839 163.999 180.537 163.585C179.976 164.674 178.5 163.697 177.292 163.919C175.389 164.27 173.426 164.86 171.745 163.473C171.626 163.921 170.249 164.491 170.247 164.509C170.329 163.716 170.84 163.994 169.797 163.844C169.604 163.816 169.387 164.154 169.205 164.191C168.583 164.317 167.857 164.198 167.23 164.18C164.622 164.107 162.236 164.673 159.661 164.878C158.793 164.946 157.763 165.082 156.948 164.762C156.109 164.431 156.132 164.057 155.283 164.269C155.551 164.202 154.752 165.024 154.795 164.994C154.681 165.075 154.205 164.673 154.035 164.704C153.986 164.879 153.937 165.054 153.887 165.23C153.682 165.205 153.478 165.18 153.273 165.156C152.713 165.229 152.208 164.674 151.682 164.656C151.779 164.659 150.263 165.212 150.332 165.245C149.273 164.728 149.577 164.878 148.234 165.193C146.965 165.49 145.701 165.421 144.399 165.606C140.61 166.145 142.867 164.286 142.401 162.016ZM139.055 180.558C138.343 179.569 140.238 179.227 140.844 179.139C141.839 178.996 143.16 179.282 143.824 179.127C144.834 178.892 145.809 178.33 146.946 178.178C148.382 177.986 149.829 177.954 151.27 177.834C151.75 177.793 152.344 177.632 152.812 177.659C153.507 177.7 153.796 178.06 154.358 178.063C155.315 178.068 156.495 177.476 157.475 177.368C158.731 177.228 159.999 177.163 161.261 177.102C163.919 176.973 166.55 177.026 169.207 177.023C170.418 177.022 173.645 175.791 174.249 177.171C175.09 176.125 177.244 176.267 178.446 176.237C180.561 176.184 182.655 175.984 184.77 175.888C186.58 175.805 188.602 176.185 190.38 175.919C191.36 175.773 191.685 175.465 192.795 175.604C193.621 175.707 194.879 175.28 195.588 175.469C195.551 175.459 196.472 176.017 196.184 176.035C196.501 176.015 196.482 176.232 196.831 176.135C197.289 176.009 197.079 175.445 198.028 175.244C199.51 174.932 201.485 175.293 203.024 175.213C204.516 175.135 206.007 175.102 207.502 175.109C208.189 175.112 209.04 174.951 209.71 175.082C210.037 175.146 210.734 175.566 211.012 175.523C211.8 175.403 212.201 174.867 213.266 174.901C214.472 174.938 215.559 174.922 216.759 174.832C217.92 174.745 218.107 174.582 218.683 175.529C219.254 176.468 219.411 177.69 218.361 178.328C219.043 178.284 219.882 179.179 219.078 179.674C218.581 179.981 217.585 179.29 216.99 179.339C216.257 179.401 215.681 179.78 214.884 179.804C214.045 179.829 213.193 180.036 212.366 180.052C211.505 180.068 210.853 179.691 210.036 179.851C209.317 179.993 209.241 180.57 208.375 180.063C207.945 179.811 207.872 178.878 207.285 178.869C206.499 178.858 206.812 179.852 206.36 180.313C206.239 178.89 205.117 181.245 204.671 179.518C204.26 180.091 202.737 180.893 202 180.433C201.328 180.013 201.551 179.063 201.271 178.378C200.804 179.608 199.554 180.885 199.667 178.645C199.059 179.377 197.418 179.261 197.829 180.542C197.334 180.533 197.217 179.841 196.801 179.789C196.441 179.744 196.156 180.014 196.101 180.01C196.298 180.027 195.512 180.282 195.499 180.285C196.032 180.179 193.965 179.999 194.317 180.002C193.837 179.998 193.25 180.382 192.689 180.381C192.178 180.38 191.67 180.183 191.165 180.127C189.858 179.981 190.13 180.262 189.309 180.664C189.005 180.812 188.929 181.065 188.497 181.033C188.178 181.01 188.059 180.603 188.023 180.6C187.575 180.555 187.906 180.408 187.21 180.476C187.13 180.611 187.051 180.745 186.971 180.879C186.72 181.194 186.394 181.272 185.994 181.115C184.964 181.332 181.55 182.269 181.884 180.533C181.361 180.784 180.838 181.034 180.315 181.285C180.09 179.886 177.247 181.741 176.613 181.834C175.798 181.954 175.723 181.648 174.953 181.485C174.814 181.456 174.535 181.904 174.21 181.84C173.365 181.673 173.214 181.591 173.07 180.693C172.467 181.795 171.966 181.302 170.874 181.483C170.632 181.524 170.477 181.989 170.13 181.909C169.88 181.851 169.873 181.404 169.701 181.346C169.546 181.294 169.569 180.94 169.34 180.89C169.078 180.832 168.184 181.55 167.927 181.661C167.349 181.91 166.399 182.323 165.834 182.2C165.136 182.047 165.447 181.54 164.46 181.598C162.904 181.686 162.255 182.983 161.286 180.94C160.85 181.758 160.905 181.981 160.203 182.251C159.685 182.45 158.371 182.242 157.688 182.217C154.772 182.112 151.905 183.085 149.012 182.83C147.741 182.718 146.669 182.469 145.386 182.672C144.038 182.887 142.72 183.201 141.353 183.328C140.657 183.392 139.204 183.588 138.863 182.718C138.563 181.952 139.683 181.429 139.055 180.558ZM144.775 211.97C140.992 214.447 137.859 217.83 134.386 220.695C130.904 223.567 128.14 226.759 125.009 229.94C122.113 232.88 119.453 235.661 115.953 237.883C113.737 239.289 111.761 241.02 109.486 242.345C107.782 243.338 105.2 244.644 106.031 241.607C106.884 238.495 108.457 235.349 109.823 232.442C111.766 228.311 113.723 224.217 115.824 220.164C116.614 218.641 117.056 217.125 118.308 215.912C119.671 214.591 120.625 212.868 122.118 211.62C128.396 206.373 137.857 210.427 144.775 211.97ZM156.641 213.749C154.925 214.629 153.005 214.847 151.186 215.43C149.636 215.926 148.196 216.808 146.529 216.874C148.046 215.758 149.349 214.243 151.06 213.397C152.984 212.444 154.73 213.137 156.641 213.749ZM231.956 221.087C225.644 219.002 219.768 215.93 213.62 213.458C212.559 213.031 204.26 210.355 204.428 209.081C210.244 208.038 216.234 206.248 222.064 208.2C227.367 209.975 231.681 214.234 235.786 217.798C236.857 218.728 243.482 222.963 242.889 224.312C242.479 225.247 239.287 224.992 238.533 224.8C237.559 224.553 236.999 223.974 236.235 223.338C234.958 222.276 233.545 221.612 231.956 221.087ZM220.304 186.255C221.263 185.392 221.837 184.081 222.752 183.284C223.929 182.26 225.827 182.759 227.113 183.291C230.973 184.887 234.271 187.571 238.107 189.237C242.358 191.083 246.038 193.551 249.871 196.093C253.376 198.417 257.165 200.341 260.742 202.559C264.387 204.82 268.468 206.289 272.163 208.469C275.923 210.688 279.669 212.916 283.283 215.361C289.727 219.722 296.436 224.2 301.204 230.399C303.654 233.586 305.948 237.2 307.746 240.778C309.38 244.031 311.153 248.547 309.035 251.931C307.001 255.18 303.534 257.74 300.599 260.165C299.488 261.083 298.431 262.198 296.99 262.596C295.238 263.08 293.194 262.947 291.392 263.09C281.757 263.854 272.781 263.132 263.286 261.445C254.131 259.819 244.938 258.908 235.712 257.778C230.508 257.14 225.305 256.397 220.171 255.335C217.976 254.881 215.743 254.357 213.596 253.739C211.72 253.199 210.144 252.009 208.215 251.538C200.032 249.537 190.668 248.773 182.567 245.408C189.736 242.49 197.355 240.729 204.703 238.305C212.437 235.754 219.99 233.613 228.142 232.888C232.336 232.515 236.09 231.467 240.125 230.369C243.971 229.323 247.985 229.003 251.935 228.534C253.691 228.325 258.704 228.637 259.286 226.39C260.152 223.043 255.227 222.657 253.128 222.957C250.149 223.382 247.693 224.11 245.414 221.718C243.087 219.275 240.825 216.774 238.455 214.362C234.062 209.89 229.533 204.718 223.322 202.711C215.745 200.264 206.958 202.587 199.398 203.979C191.413 205.449 183.44 206.856 175.604 208.994C172.36 209.878 168.175 211.828 164.807 211.515C161.488 211.206 157.729 210.674 154.521 209.737C153.07 209.313 151.877 208.527 150.579 207.795C148.89 206.842 147.04 206.232 145.248 205.491C141.624 203.994 138.092 202.615 134.182 202.026C130.89 201.53 127.393 201.236 124.203 202.366C121.073 203.475 118.299 205.732 116.115 208.143C113.743 210.763 111.782 213.698 109.838 216.625C108.904 218.029 107.765 219.255 106.798 220.628C105.987 221.782 105.513 223.063 104.654 224.184C102.732 226.691 101.427 229.899 100.262 232.816C98.9676 236.056 97.53 239.91 97.8391 243.435C97.9557 244.767 98.0777 246.532 98.6042 247.767C99.2738 249.338 100.228 249.298 101.605 249.891C103.969 250.909 104.632 253.723 107.688 253.175C110.554 252.66 113.039 250.348 115.13 248.505C117.856 246.104 120.464 243.571 123.072 241.049C125.748 238.459 128.385 235.587 130.514 232.541C131.352 231.342 132.005 229.988 132.996 228.896C134.257 227.505 135.673 227.338 137.386 226.784C152.362 221.939 167.411 217.266 182.856 214.068C186.556 213.301 190.286 212.313 193.921 211.293C197.776 210.211 199.772 211.355 202.954 213.414C209.601 217.716 217.457 220.746 224.859 223.554C227.19 224.438 230.9 224.494 232.722 226.237C221.923 227.848 211.632 230.949 201.216 234.037C196.08 235.559 190.886 236.879 185.731 238.335C180.574 239.792 175.614 241.679 170.528 243.32C165.466 244.954 160.116 245.621 155.006 247.128C149.789 248.667 144.594 249.725 139.238 250.66C133.831 251.605 128.462 252.695 123.036 253.54C120.552 253.927 118.068 254.329 115.611 254.861C113.207 255.383 110.885 256.631 108.469 256.92C97.6798 258.213 87.1024 261.092 76.3552 262.719C68.331 263.935 54.3706 265.63 49.1671 257.748C43.9346 249.823 50.3541 240.577 56.082 234.909C59.6417 231.387 63.6415 228.287 67.8381 225.529C72.3296 222.578 76.651 219.392 81.1434 216.444C91.3097 209.775 102.334 204.336 113.256 198.977C118.498 196.405 123.564 193.646 128.663 190.823C131.195 189.422 132.595 191.683 134.596 193.219C136.17 194.428 139.059 197.407 141.261 196.03C141.346 196.526 141.431 197.022 141.516 197.519C142.16 197.231 142.806 196.943 143.451 196.655C143.884 197.767 143.833 198.458 145.043 199.042C145.786 199.401 147.372 199.833 148.081 199.201C148.225 199.641 148.37 200.079 148.515 200.518C149.134 200.472 149.254 198.737 149.371 198.331C150.432 199.849 151.9 201.117 153.766 201.546C153.775 201.447 153.463 200.2 153.476 200.193C154.066 199.839 154.811 201.354 155.124 201.678C156.161 202.753 156.78 202.586 157.927 201.719C158.01 201.807 158.398 202.799 158.454 202.781C158.703 202.703 159.173 201.825 159.225 201.745C159.154 202.9 161.432 203.133 162.236 202.885C162.056 202.547 161.875 202.208 161.695 201.87C164.497 201.504 165.597 204.418 168.287 204.27C170.276 204.16 168.681 203.735 169.806 202.901C170.789 202.173 170.964 203.766 171.061 203.716C171.249 203.524 171.394 203.303 171.497 203.053C171.861 204.417 174.758 205.642 174.458 203.398C175.598 203.844 176.407 204.585 177.668 204.741C179.201 204.931 180.838 204.613 182.367 204.489C185.662 204.22 188.769 203.562 191.739 202.084C193.5 201.208 195.374 200.413 197.03 199.356C198.415 198.471 201.043 195.785 202.888 196.942C202.415 195.578 204.639 196.842 204.71 195.085C205.067 195.348 205.425 195.611 205.782 195.875C205.996 195.416 205.936 194.691 206.223 194.29C206.617 193.74 206.809 194.064 207.145 193.754C207.521 193.408 207.849 192.48 208.3 192.216C208.764 191.945 209.31 192.269 209.81 192.031C210.571 191.669 213.843 188.137 213.289 191.164C214.696 190.696 213.612 190.268 213.787 189.35C214.14 187.51 214.999 188.834 215.855 188.994C217.257 189.257 217.228 188.123 218.01 187.299C218.723 186.546 220.065 186.209 219.603 184.901C220.131 185.18 220.243 185.725 220.304 186.255ZM135.827 146.967C134.723 148.171 133.896 147.656 132.669 147.48C132.537 147.049 132.313 146.99 131.996 147.301C131.632 147.505 131.241 147.64 130.822 147.704C129.815 147.947 128.77 147.844 127.785 148.212C127.814 147.889 128.16 147.315 127.938 146.987C126.903 147.689 126.261 148.134 124.989 148.148C123.959 148.158 122.15 147.388 121.295 148.309C121.268 147.95 121.242 147.592 121.216 147.234C120.797 147.438 120.432 147.711 120.123 148.054C120.064 147.523 120.031 147.121 119.672 146.692C118.992 148.062 118.246 148.095 116.924 147.571C117.109 147.644 115.6 146.778 115.658 147.018C115.181 145.05 122.711 145.213 123.502 145.135C125.477 144.94 127.451 144.827 129.428 144.648C131.303 144.48 132.703 144.193 134.001 145.725C133.422 143.513 138.894 143.622 135.827 146.967ZM49.4836 112.656C49.6911 116.001 50.4516 119.556 49.1231 122.776C48.0552 125.363 45.9248 128.286 43.6296 129.974C38.9303 133.432 34.9474 129.201 34.2931 124.551C33.6115 119.701 34.9627 113.775 39.2286 110.785C41.7776 108.999 44.2457 109.122 47.1802 109.71C47.8693 109.848 48.9883 109.795 49.3824 110.465C49.4749 110.622 49.392 112.653 49.4836 112.656ZM111.897 157.221C111.086 157.622 110.236 157.857 109.521 158.402C109.272 158.592 109.187 159.024 108.924 159.183C108.444 159.474 107.757 159.281 107.257 159.521C106.429 159.917 105.835 160.484 104.851 160.849C103.389 161.392 102.108 162.135 100.726 162.84C98.4245 164.016 95.9539 165.024 93.5476 165.981C92.3328 166.463 88.9735 167.405 89.0897 169.145C88.8179 169.217 88.5404 168.636 87.9728 168.682C87.1941 168.745 86.1651 169.627 85.3565 169.844C83.8439 170.249 82.6731 170.285 82.6731 172.173C82.1918 171.853 82.0694 171.069 81.4288 170.965C80.7078 170.848 80.4045 171.61 79.8278 171.847C79.1486 172.126 78.3039 171.858 77.6314 172.155C77.3373 172.46 77.0103 172.726 76.6506 172.952C76.2847 172.993 75.9204 172.983 75.5582 172.919C74.1302 173.216 72.8163 173.742 71.3849 174.014C69.9901 174.281 69.0346 174.378 69.6213 175.993C68.1289 176.279 67.7647 174.729 66.0811 175.296C64.0174 175.99 62.0886 176.491 59.9346 176.915C58.8359 177.131 57.688 177.613 56.5815 177.726C55.792 177.807 55.0551 177.531 54.2776 177.617C53.3408 177.719 52.5878 178.144 51.6182 178.16C50.6984 178.176 49.733 178.014 48.8298 177.856C48.9576 178.212 49.1173 178.553 49.309 178.88C48.6846 178.752 48.3962 178.017 47.8668 177.908C47.3113 177.795 46.8135 178.356 46.3509 178.231C46.1538 178.178 46.2849 177.583 45.9327 177.47C45.6111 177.367 45.4759 177.488 45.1572 177.44C45.051 177.423 43.7188 177.353 43.5064 177.463C43.1355 177.655 43.511 178.016 43.4371 178.07C42.1842 178.977 42.1688 178.488 41.6104 177.539C40.7902 176.147 39.8011 177.026 38.3104 176.782C36.6488 176.511 35.3399 177.228 33.7048 177.126C31.9411 177.016 29.8684 175.724 28.3088 174.969C24.9416 173.34 21.6578 171.798 18.83 169.331C13.3017 164.507 8.80433 158.574 6.15265 151.783C3.30352 144.486 2.76363 136.877 2.99231 129.136C3.12989 124.481 3.5105 119.828 4.26003 115.227C4.77602 112.063 4.8841 106.438 8.52885 104.997C9.15532 112.407 7.1782 119.958 8.42513 127.321C8.8006 129.538 9.71625 132.493 11.4492 134.135C14.0149 136.566 14.6152 133.052 14.8471 131.111C15.279 127.505 16.0814 123.92 16.6498 120.332C17.2173 116.745 17.6185 113.118 18.4076 109.569C18.6956 108.275 21.0164 98.799 22.7199 99.2478C22.3752 106.142 21.4599 112.917 21.4238 119.836C21.4097 122.611 21.1558 125.542 21.5649 128.299C21.7757 129.718 23.0954 133.881 25.3652 133.534C27.4658 133.213 25.1565 130.28 24.9603 129.15C24.4409 126.156 25.103 122.432 25.5872 119.461C26.5041 113.838 28.549 108.079 31.8913 103.38C34.8851 99.173 39.4945 95.1674 45.0477 95.9095C47.42 96.2267 49.2712 96.8035 50.4632 98.9245C51.3988 100.589 55.0833 102.48 52.9479 104.564C51.0042 106.462 47.8602 104.943 45.6995 104.491C43.0538 103.937 40.2185 104.603 38.0059 106.121C34.2097 108.724 32.0465 113.379 31.3404 117.744C30.3886 123.63 32.9327 139.036 42.3028 135.584C48.5278 133.29 53.2164 125.038 52.6936 118.72C52.4841 116.192 51.4743 111.391 55.0481 110.708C59.6267 109.834 60.2735 114.775 59.8097 117.986C59.1359 122.656 56.6143 126.999 53.7296 130.692C51.2154 133.911 48.2913 135.923 45.2659 138.582C44.3702 139.368 42.0854 141.137 42.4692 142.601C42.8899 144.205 46.4803 144.661 47.9179 144.925C55.0302 146.228 63.0508 145.029 70.1511 144.12C84.7442 142.248 99.1452 137.641 111.111 129.169C111.595 134.411 112.204 139.635 112.429 144.896C112.537 147.449 112.565 150.04 112.863 152.58C113.047 154.142 113.71 156.324 111.897 157.221ZM71.4335 175.485C70.8605 175.778 71.4799 174.004 71.3206 174.591C72.1765 174.891 72.2143 175.189 71.4335 175.485ZM131.97 112.051C132.879 111.07 135.364 108.736 136.152 110.951C136.446 110.007 136.484 108.608 137.616 109.883C138.067 108.317 143.042 108.463 144.275 108.394C148.22 108.173 152.181 108.055 156.113 107.671C164.192 106.883 172.412 107.29 180.52 107.264C182.276 107.258 184.027 107.165 185.77 107.414C187.452 107.655 189.22 108.33 190.934 108.083C192.458 107.864 193.458 107.453 195.026 107.629C196.904 107.839 198.726 107.989 200.62 107.982C208.998 107.952 217.371 108.285 225.75 108.298C227.383 108.3 229.339 107.988 230.872 108.667C231.439 108.919 232.059 109.756 232.493 109.848C232.989 109.953 232.694 109.194 233.36 109.537C234.25 109.996 233.561 111.406 232.972 111.63C233.325 111.496 232.336 111.364 232.435 111.359C231.966 111.384 231.566 111.736 231.062 111.714C230.294 111.681 229.652 111.223 229.034 110.819C229.023 110.984 229.363 112.082 228.975 112.137C228.641 112.185 228.329 111.103 228.295 110.851C226.421 112.47 224.435 111.568 222.109 111.772C220.459 111.918 217.019 112.995 215.868 111.309C215.82 111.668 215.673 111.982 215.427 112.251C215.098 112.741 214.814 112.7 214.574 112.125C214.492 112.128 213.691 112.299 213.675 112.298C213.111 112.254 212.38 112.056 211.806 112.008C210.918 111.933 211.082 112.566 210.374 112.576C209.988 112.582 209.003 112.036 208.329 112.002C207.163 111.942 205.971 112.427 204.82 112.28C204.028 112.179 203.312 111.548 202.534 111.523C201.565 111.492 201.251 112.215 200.484 111.199C200.327 111.157 200.229 111.755 200.167 111.765C200.182 111.762 199.436 111.871 199.348 111.904C199.195 111.962 198.599 112.229 198.418 112.232C198.026 112.239 197.813 111.964 197.398 111.958C196.711 111.946 194.517 112.539 194.579 111.294C192.127 112.184 190.035 111.837 187.518 112.047C186.363 112.144 185.638 111.993 184.539 111.785C183.164 111.525 182.25 111.852 180.878 111.918C179.56 111.981 179.144 111.435 178.031 110.942C177.592 110.747 177.302 110.491 176.763 110.599C176.456 110.661 176.675 111.167 176.584 111.202C176.111 111.38 175.781 111.191 175.132 111.234C173.935 111.314 173.458 112.294 172.228 111.374C172.636 111.326 173.045 111.276 173.455 111.228C172.278 110.739 170.725 110.49 171.01 112.269C170.006 112.131 170.875 111.462 170.381 111.222C169.888 110.983 169.336 111.384 168.714 111.581C167.073 112.102 165.705 111.844 163.994 111.75C162.049 111.644 157.501 113.197 156.108 111.181C156.066 111.606 155.6 112.789 154.98 112.734C154.778 112.715 155.342 111.459 155.405 111.326C155.086 111.992 153.629 112.118 152.91 112.463C152.991 112.105 153.071 111.748 153.152 111.39C152.485 112.085 152.161 111.661 151.377 111.894C151.033 111.995 150.537 112.688 150.243 112.73C149.902 112.342 149.472 112.175 148.955 112.229C148.611 112.145 148.267 112.128 147.923 112.18C146.546 112.278 145.291 113.026 143.921 112.516C142.735 112.074 142.276 110.937 141.569 112.746C141.383 112.425 141.197 112.103 141.011 111.781C140.782 112.13 140.553 112.479 140.323 112.828C139.426 112.253 139.371 111.92 138.338 112.131C138.096 112.226 137.848 112.213 137.593 112.091C137.532 112.269 137.472 112.446 137.411 112.623C137.387 113.068 137.251 113.215 137.006 113.064C136.799 112.991 136.613 112.881 136.447 112.733C135.764 112.784 134.891 112.96 134.158 112.863C133.875 112.826 132.101 111.909 131.97 112.051ZM152.871 100.076C152.951 100.197 153.031 100.318 153.112 100.439C152.003 101.012 151.742 100.683 151.628 99.5321C152.169 99.5422 152.262 100.475 152.871 100.076ZM153.558 99.4009C154.092 99.6316 154.704 100.084 155.207 99.4777C155.545 100.441 153.031 101.756 153.558 99.4009ZM157.006 99.8266C158.127 100.568 155.438 99.972 155.442 99.9732C155.926 99.5361 156.447 99.4874 157.006 99.8266ZM166.648 95.6902C167.033 97.5894 168.093 97.5354 169.804 96.6524C172.3 95.3648 172.722 93.2564 172.896 90.7386C173.063 88.3244 173.365 87.3898 175.907 87.8938C177.682 88.2456 179.184 87.9499 180.973 87.9016C182.882 87.85 183.555 88.1355 183.709 90.0591C183.863 91.9851 184.213 93.4477 185.641 94.9136C187.092 96.4038 189.028 97.2937 190.914 98.1276C191.884 98.5557 192.795 99.0167 193.868 99.1097C194.284 99.1458 196.448 98.8777 196.493 99.5483C196.527 100.052 193.53 101.474 193.212 101.643C191.822 102.383 190.436 103.047 188.917 103.496C185.424 104.527 181.72 104.588 178.102 104.526C172.268 104.426 164.205 102.01 160.716 96.9428C162.694 96.5252 164.671 96.1077 166.648 95.6902ZM166.125 79.2446C165.202 78.4863 164.604 77.3405 163.837 76.4425C163.45 75.9896 163.167 75.8454 162.799 75.6188C162.412 75.3799 162.193 75.7179 161.87 75.1565C161.035 73.7065 163.612 71.666 160.878 71.1079C159.953 70.9186 157.727 71.6363 157.457 70.3386C157.075 68.504 160.652 68.3842 161.493 67.4528C163.167 65.6015 162.031 62.4631 163.05 60.3275C164.015 58.3044 166.506 57.9449 168.471 57.3369C171.21 56.4905 173.982 55.9994 176.763 55.3219C178.708 54.8483 181.938 52.9459 183.742 54.627C180.959 55.2318 182.577 56.1814 184.432 56.7171C186.533 57.3247 188.759 57.5615 190.936 57.7309C193.177 57.9047 195.461 57.938 197.675 57.5006C199.723 57.096 202.01 55.3536 204.157 55.8C202.966 57.828 199.417 58.9356 197.26 59.4668C196.161 59.7373 195.458 59.6528 195.606 60.994C195.748 62.2937 196.902 63.5971 197.163 64.9513C197.508 66.7433 197.207 68.3903 196.555 70.0754C195.914 71.7338 195.765 71.9503 196.325 73.5347C197.198 76.0018 195.322 78.7288 193.588 80.5203C186.576 87.7647 173.156 85.0206 166.125 79.2446ZM183.943 35.9483C183.971 36.0222 183.947 35.9942 183.943 35.9483V35.9483ZM186.127 54.2306C185.836 54.443 184.161 54.889 184.232 54.2484C184.325 53.3898 185.834 53.7001 186.127 54.2306ZM189.943 36.8898C189.55 36.603 188.45 36.7208 189.255 35.6339C189.516 36.112 189.73 36.5007 189.943 36.8898ZM163.533 30.0191C164.034 28.7454 164.588 27.5602 164.814 26.204C164.954 25.3685 164.676 24.4145 165.87 24.2833C164.349 23.6342 164.334 21.0721 164.244 19.744C164.12 17.915 163.53 15.466 164.352 13.7637C165.194 12.0149 166.331 12.0438 166.675 14.1265C166.809 14.942 166.295 15.2057 166.198 15.7736C166.007 16.897 166.387 16.6507 167.128 15.7949C167.433 16.6648 167.55 17.972 168.794 17.9167C168.711 17.6814 168.235 17.1625 168.394 16.8702C168.639 16.4215 169.833 17.1072 169.984 17.211C171.076 17.9579 171.312 18.6398 170.534 19.5819C171.611 19.6956 170.707 20.6189 171.403 20.8593C172.463 21.2265 171.752 19.4873 171.637 19.1814C172.282 19.428 172.499 19.7099 172.908 20.209C173.148 20.5535 173.367 20.9113 173.564 21.2813C173.784 21.9572 174.236 22.1261 174.921 21.7894C176.295 22.2114 178.192 22.1452 179.423 22.8832C179.986 23.2199 180.189 23.9571 180.659 24.237C181.188 24.5521 181.896 24.4092 182.464 24.607C182.256 25.0692 182.425 25.3194 182.968 25.3584C183.39 25.3962 183.799 25.4892 184.195 25.6374C184.49 25.4193 184.812 25.2467 185.159 25.1216C185.393 25.5241 185.723 25.6236 186.15 25.4209C187.417 25.6533 188.025 26.1224 188.831 26.8238C189.553 27.4534 188.965 27.5046 189.757 27.4485C190.075 27.4262 190.633 26.8977 191.36 27.0009C191.78 27.0805 192.183 27.2072 192.572 27.3799C192.993 27.732 193.439 27.7763 193.912 27.5131C194.679 27.8798 194.754 28.5305 195.69 28.6195C196.724 28.7182 196.391 27.4554 197.102 29.236C198.058 27.3482 198.409 30.3558 199.397 30.5987C200.42 30.8505 200.53 30.0382 201.406 30.9257C201.669 31.1917 201.654 31.6312 201.949 31.9131C202.432 32.3745 203.085 32.2823 203.505 32.9118C203.271 32.5605 203.56 34.1571 203.555 34.1043C203.62 34.8086 202.981 35.5978 204.291 35.5377C204.276 35.6116 203.647 36.5096 203.524 36.4081C203.494 36.3057 203.468 36.2017 203.449 36.0965C203.308 36.1558 203.246 37.0112 203.271 37.1623C203.383 37.1794 203.428 37.0986 203.408 36.9198C203.193 37.5795 203.517 37.9986 203.103 38.6249C202.839 39.025 202.114 39.326 201.729 39.5729C200.8 40.1692 199.891 40.7674 198.985 41.4023C196.872 42.8823 194.506 44.6674 191.845 44.9761C193.181 43.6914 200.87 38.8296 197.014 37.434C196.298 37.1753 194.996 36.9304 194.248 36.876C193.317 36.8086 192.355 37.3301 191.329 37.0043C190.091 36.6124 190.557 35.4727 189.801 35.0637C188.195 34.1965 188.574 36.2363 188.068 36.7704C187.537 36.2249 187.651 35.9593 186.812 35.9101C185.961 35.8598 185.758 36.6302 184.765 36.1502C183.396 35.4889 184.12 34.1713 182.179 34.1405C182.211 33.8513 182.493 33.043 182.122 32.8176C181.623 33.4516 182.009 34.1608 181.546 34.7712C181.314 35.0775 180.81 35.3216 180.442 35.4207C179.582 35.6522 179.459 36.0953 179.599 34.8265C178.961 35.9515 177.005 35.4889 175.841 35.3756C173.949 35.1916 171.939 34.8411 170.125 34.2473C168.448 33.6977 167.552 32.7538 166.168 31.8948C165.646 31.5698 165.396 31.6941 164.646 31.4923C163.906 31.2933 163.184 30.9074 163.533 30.0191ZM167.525 10.0973C167.81 9.92881 168.015 12.4424 167.669 12.912C167.035 11.9307 165.912 10.4912 167.525 10.0973ZM168.437 9.09463C169.355 8.28088 168.717 10.3827 168.549 10.7353C168.209 10.5218 167.869 10.3083 167.528 10.0947C167.962 9.83397 168.071 9.4192 168.437 9.09463ZM203.088 5.70731C211.573 7.45056 219.981 10.709 226.787 16.0714C232.986 20.9556 237.361 27.8855 239.814 35.257C242.36 42.9083 241.505 51.3972 235.447 57.2532C232.256 60.3376 228.042 62.1987 224.025 64.0146C222.101 64.8847 220.119 65.6093 218.188 66.4594C216.8 67.0698 215.106 68.0462 213.523 67.8773C214.331 67.045 215.503 67.028 216.48 66.5195C217.662 65.9041 218.626 64.7238 219.644 63.8806C220.655 63.0435 222.897 60.4075 224.45 61.0456C224.235 59.6411 225.869 58.9892 226.606 58.0631C227.384 57.0835 227.44 55.9377 228.876 55.6172C227.334 54.4361 227.806 52.2091 228.142 50.6015C228.571 48.5455 228.769 46.658 228.938 44.5659C229.243 40.7942 229.489 35.9893 227.36 32.6738C226.669 31.5971 225.79 30.6076 225.173 29.4891C224.43 28.1414 224.594 26.9554 224.594 25.4778C223.236 26.3714 222.95 24.5497 222.376 23.6618C221.946 22.9957 221.38 22.6237 221.241 21.7854C221.14 21.1757 221.817 21.0725 221.446 20.4332C220.991 20.7691 220.81 21.2898 220.58 21.7732C220.16 21.6091 220.655 21.0372 220.415 20.8516C220.408 20.8463 219.598 20.5023 219.639 20.5518C219.118 19.9056 218.95 18.8334 218.695 18.0643C217.741 18.5373 217.92 18.4816 216.855 17.6912C216.668 17.5521 215.732 16.9132 215.643 16.7043C215.232 15.7277 215.953 16.3062 215.751 15.7C215.172 13.9589 211.92 14.2882 211.662 11.6793C210.077 12.6649 209.472 11.2683 208.535 10.2751C207.574 9.25759 205.962 8.86621 206.049 7.25231C205.549 7.41949 205.05 7.58622 204.552 7.75255C204.811 6.2633 202.551 6.35814 201.733 5.60268C202.187 5.6082 202.639 5.64309 203.088 5.70731ZM204.38 97.9468C205.167 97.2584 204.928 98.1747 205.434 98.0699C205.867 97.9801 205.952 97.6601 206.367 97.5618C208.077 97.1572 210.633 97.6653 212.431 97.578C214.513 97.4773 218.083 97.9005 219.075 100.286C219.673 101.722 218.761 101.233 217.755 101.127C216.976 101.044 216.283 101.199 215.512 101.191C215.131 101.249 214.751 101.243 214.372 101.173C214.188 101.054 214.079 100.887 214.045 100.671C212.972 100.512 211.832 101.133 210.644 101.164C209.058 101.205 207.649 100.908 206.444 99.8594C205.965 100.558 205.639 100.905 204.777 100.983C204.755 100.985 203.913 100.654 203.783 100.621C203.61 100.577 203.174 100.931 202.842 100.83C203.432 99.9102 203.517 98.7019 204.38 97.9468ZM312.692 106.248C312.972 105.294 313.206 104.328 313.461 103.369C317.375 107.732 320.801 113.572 322.343 119.167C323.344 122.802 324.902 129.39 320.129 131.266C316.24 132.793 314.072 127.318 313.088 124.621C310.916 118.667 310.916 112.305 312.692 106.248ZM137.554 37.8877C137.604 37.8776 135.02 39.3491 135.871 38.1578C136.213 37.6786 137.511 37.3418 138.086 37.3418L137.554 37.8877ZM135.068 38.5112C134.769 38.7573 134.467 39.0006 134.163 39.2407C133.87 38.7882 133.577 38.3353 133.284 37.8829C133.861 37.6448 136.31 37.4661 135.068 38.5112ZM133.247 84.2603C132.706 83.9017 132.277 84.0921 132.115 84.6941C132.115 84.0954 132.433 82.7039 132.923 82.5418C133.239 82.4366 131.871 80.8522 132.256 80.4375C133.234 80.9858 132.648 81.511 132.935 82.2189C133.064 82.5382 133.452 82.8404 133.537 83.0857C133.682 83.5024 134.265 84.9345 133.247 84.2603ZM130.597 80.6946C130.044 80.8335 131.013 81.7283 131.012 82.1239C131.012 82.4232 130.645 82.6527 130.493 83.0621C130.165 83.9488 130.73 84.5479 129.8 85.2245C129.8 83.2814 128.468 78.1325 131.028 77.1857C129.779 76.2231 130.805 75.1119 131.784 76.2642C132.725 77.3718 132.125 80.312 130.597 80.6946ZM129.264 73.0266C128.761 71.2801 127.246 70.6692 125.516 70.7728C125.582 69.8784 126.274 68.5893 126.774 70.2009C126.979 69.7245 127.122 69.1031 127.59 68.7875C128.38 71.2103 132.316 72.549 129.865 75.1744C129.665 74.4588 129.47 73.7415 129.264 73.0266ZM124.69 70.9028C115.577 71.5498 102.782 73.4011 95.4884 66.5621C90.733 62.1028 90.9869 55.1586 94.83 50.2043C97.0231 47.3769 100.017 45.3863 103.024 43.49C104.184 42.7576 105.166 42.2747 106.44 41.8539C106.646 41.832 106.84 41.8771 107.022 41.9892C107.094 41.6878 107.267 41.4652 107.542 41.3194C108.034 41.0619 108.735 40.9697 109.019 40.4348C108.716 41.4396 108.561 42.4741 108.45 43.5135C108.204 43.2337 107.959 42.9538 107.714 42.674C107.509 44.5675 105.494 43.4213 104.291 43.6577C105.083 44.7316 105.65 45.1215 105.718 46.5407C105.128 45.4737 103.894 44.7722 102.746 44.4286C103.369 46.2332 103.81 47.3042 103.182 49.2831C102.424 48.8594 102.373 47.842 101.454 47.5983C101.211 48.7782 101.169 50.0877 100.858 51.2327C98.5038 50.1815 98.7332 53.0125 99.6787 54.4133C100.181 55.1586 100.428 56.0213 100.877 56.7366C101.977 58.4916 101.141 55.8674 102.364 55.9917C102.089 57.8426 101.993 58.027 103.377 59.3823C104.727 60.704 105.428 62.5378 106.872 63.7795C107.29 63.2563 106.633 62.7088 106.575 62.208C107.919 62.4286 108.548 63.7478 109.84 62.5793C110.403 63.6544 111.013 64.8383 112.363 65.0589C111.471 63.3989 114.076 64.5248 114.744 64.7604C115.25 64.9391 116.158 65.0812 116.353 65.1499C117.454 65.539 116.699 64.8408 117.367 66.1165C118.348 65.8265 118.718 65.0301 119.891 65.7031C120.845 66.2506 120.847 67.188 121.066 68.1486C121.293 67.5202 121.522 66.8923 121.774 66.2725C122.03 66.3781 123.104 67.5353 122.986 67.5406C125.5 67.4199 125.411 68.9479 124.69 70.9028ZM111.894 39.5798C112.399 39.2329 113.015 39.6948 113.582 39.5705C114.367 39.3991 114.812 38.7411 115.689 38.6704C115.445 39.4336 114.987 39.3621 114.6 39.9612C114.468 40.1655 114.537 40.6553 114.42 40.7731C113.437 41.7581 113.098 40.9543 112.095 40.2086C112.182 41.1078 112.359 41.3917 111.493 41.633C110.71 41.8519 109.417 41.0465 109.022 40.4287C109.355 39.7764 111.29 39.9949 111.894 39.5798ZM118.148 38.1741C118.999 38.2537 117.973 40.7118 116.754 38.3276C117.213 38.2297 117.678 38.1785 118.148 38.1741ZM122.523 37.6993C123.866 37.4312 128.342 36.1823 128.84 38.2273C128.93 38.1765 129.263 37.0218 129.418 37.1627C130.037 37.7273 130.107 38.4755 130.059 39.2593C129.31 37.7314 129.576 39.0737 129.069 38.9689C128.936 38.9413 128.733 39.1838 128.398 39.0839C127.958 38.9523 127.642 38.0356 127.364 37.7253C126.902 38.3715 126.328 39.2041 125.402 39.1481C124.746 39.1083 123.689 37.4556 124.539 39.265C124.04 39.1038 123.463 38.7386 122.907 38.8118C122.285 38.8942 121.962 39.4949 121.379 39.592C120.087 39.8065 119.892 38.5892 119.053 37.9279C120.21 37.8621 121.381 37.9271 122.523 37.6993ZM130.643 37.6794C130.738 37.2602 131.912 37.0908 132.211 37.2241C132.941 37.5486 132.671 37.9771 132.537 38.6899C131.996 38.4389 131.454 38.1883 130.912 37.9373C131.721 39.2118 130.256 39.3966 130.643 37.6794ZM357.974 112.331C357.878 109.277 357.787 106.17 356.996 103.196C356.443 101.115 355.083 97.3839 352.511 97.0228C348.633 96.4777 346.485 103.982 345.398 106.558C345.181 103.525 345.371 100.297 344.201 97.4188C343.264 95.1118 340.897 92.927 338.858 95.5176C337.044 97.8233 336.696 101.227 336.218 104.001C335.6 107.595 335.228 111.217 334.776 114.834C333.005 111.482 332.695 107.645 331.295 104.162C329.973 100.875 327.894 97.7356 325.891 94.812C324.256 92.4238 322.266 90.1785 319.704 88.7188C317.474 87.4483 313.574 86.0738 311.448 88.1839C309.674 89.9446 309.952 92.3007 310.045 94.5229C310.086 95.5123 310.244 96.1906 309.355 96.6893C308.919 96.9343 308.236 96.8075 307.756 96.9383C306.983 97.1499 306.389 97.5082 305.736 97.9842C301.149 101.322 299.034 107.336 298.38 112.698C297.552 119.493 300.257 125.317 302.585 131.534C302.956 132.524 304.135 134.626 303.972 135.732C303.793 136.944 302.24 136.976 301.191 137.001C298.025 137.077 294.715 136.846 291.565 136.557C284.064 135.87 276.568 132.335 269.852 129.179C268.627 128.603 266.893 128.273 265.893 127.366C264.953 126.514 264.705 125.147 263.893 124.169C261.901 121.77 260.632 119.722 257.699 118.272C254.712 116.796 251.664 115.432 248.75 113.815C245.146 111.815 241.817 109.281 238.363 107.042C231.945 102.88 225.57 98.3189 218.766 94.7804C215.604 93.1358 212.07 92.8698 208.788 91.5233C205.591 90.2122 201.667 90.2106 198.331 91.0384C196.705 91.4421 195.6 92.3982 194.105 93.0225C192.354 93.754 190.925 92.9465 189.384 92.0733C187.029 90.7394 184.695 88.5657 188.048 87.1266C189.185 86.638 190.611 86.4532 191.604 85.6855C192.664 84.8675 193.514 83.3582 194.375 82.3335C196.29 80.0553 197.434 77.4331 200.236 76.0164C203.336 74.4498 207.009 74.0233 210.314 72.9994C213.894 71.8906 217.4 70.5718 220.914 69.2769C227.245 66.9443 233.826 64.4257 238.375 59.2901C242.299 54.8601 244.009 49.1413 243.85 43.3332C243.527 31.4598 237.03 19.4093 227.708 11.9855C216.278 2.88235 201.736 -0.153196 187.298 0.0058986C180.521 0.0807953 172.434 0.948971 166.78 4.9795C161.897 8.46081 161.084 14.5498 161.811 20.0462C162.105 22.2768 163.113 25.2207 161.506 27.1861C160.607 28.286 158.993 28.5581 157.781 29.2437C156.259 30.1052 154.916 30.931 153.192 31.3863C145.868 33.3229 138.153 32.6486 130.665 32.5414C118.19 32.3627 105.403 35.6693 96.0975 44.2747C88.5823 51.2233 86.3286 64.3266 95.4942 71.1006C102.899 76.5732 114.515 75.9713 123.246 75.0168C125.954 74.7203 127.816 74.2898 127.822 77.533C127.829 81.0756 127.229 84.7782 128.153 88.2557C129.607 93.7333 134.983 93.8636 139.736 92.6841C142.244 92.0619 144.668 91.1261 147.05 90.146C150.543 88.7086 153.745 86.5949 157.195 85.16C159.534 84.1876 161.285 87.3325 163.359 85.1522C163.743 84.7493 163.813 84.149 164.391 83.9427C165.298 83.6198 166.817 84.7522 167.612 85.1104C168.802 85.6465 170.001 86.0409 170.477 87.3325C170.922 88.5405 170.727 90.4616 170.301 91.6533C169.375 94.2442 166.882 93.7321 164.607 93.5586C160.638 93.2564 156.695 92.6151 152.728 92.3458C149.168 92.1046 145.835 93.1456 142.764 94.8644C136.315 98.4736 131.039 104.215 125.448 108.936C122.57 111.366 119.788 113.99 116.659 116.106C115.298 117.026 113.824 117.872 112.642 119.015C111.468 120.149 111.339 121.181 110.938 122.69C110.223 125.377 106.673 126.691 104.454 128.109C101.317 130.113 97.9902 131.528 94.4724 132.758C87.0231 135.363 79.515 137.182 71.7268 138.526C67.9136 139.185 64.1323 139.618 60.2822 139.973C56.9632 140.279 53.4342 141.28 50.1192 140.481C51.0739 138.965 52.7658 138.054 54.0835 136.883C55.782 135.372 57.2266 133.582 58.5123 131.727C61.0145 128.115 62.7699 124.24 63.1727 119.86C63.5362 115.917 63.1196 111.201 60.6897 107.871C59.8503 106.72 58.1896 106.407 57.4386 105.371C56.6914 104.341 56.9764 102.567 56.5674 101.366C55.5264 98.3107 52.4368 94.5249 49.7176 92.7504C46.7678 90.8247 42.4526 90.1176 39.0452 91.1208C32.7323 92.9798 28.8544 99.5845 25.9656 104.922C24.3878 101.672 27.0302 96.849 23.9476 94.187C21.3475 91.9413 19.2839 96.2913 18.4143 98.1523C14.3322 106.889 13.405 116.154 11.6948 125.502C10.9978 124.829 11.355 123.103 11.4206 122.301C11.5426 120.807 11.5309 119.342 11.5343 117.842C11.5426 114.053 12.262 110.247 11.9321 106.462C11.7417 104.273 11.0289 99.6592 7.78144 100.386C5.02732 101.003 3.30219 104.794 2.43683 107.112C1.18865 110.456 0.900472 113.766 0.978179 117.298C1.0641 121.2 0.304616 125.039 0.120615 128.936C-0.237015 136.506 0.116261 144.009 2.33485 151.315C5.96778 163.278 14.321 173.218 25.4694 179.22C31.6117 182.528 38.4258 184.62 45.4315 185.07C49.2281 185.314 52.8932 184.872 56.6574 184.487C60.3718 184.108 64.1058 183.933 67.814 183.488C76.0719 182.496 84.1185 179.937 91.6246 176.493C95.5755 174.68 99.2912 172.454 103.177 170.521C104.737 169.746 105.79 168.776 107.121 167.697C108.441 166.629 108.806 166.545 110.306 166.545C109.866 165.392 111.151 165.037 111.722 164.308C111.69 164.662 111.658 165.015 111.626 165.368C112.062 164.443 112.468 164.452 112.843 165.395C113.214 164.339 113.489 163.253 113.937 162.224C115.65 163.072 115.505 165.09 117.796 163.617C119.683 162.405 121.417 160.974 123.34 159.786C127.721 157.079 131.498 153.557 135.891 150.881C135.891 153.487 136.079 156.116 135.723 158.709C135.385 161.175 134.445 163.479 133.697 165.84C132.318 170.195 132.222 174.849 130.694 179.16C130.061 180.946 128.415 182.439 127.942 184.177C127.461 185.95 128.573 187.371 126.709 188.535C125.395 189.356 123.752 189.702 122.297 190.198C120.077 190.956 117.97 192.025 115.809 192.932C105.673 197.183 95.7871 201.513 86.3967 207.23C77.485 212.655 68.4372 218.258 60.2507 224.7C53.1458 230.292 45.9638 237.522 44.2341 246.643C42.5559 255.491 47.0275 264.988 56.006 267.902C60.6743 269.417 65.952 269.229 70.8136 269.295C76.0449 269.366 81.5886 268.131 86.7319 267.238C92.1635 266.295 97.5023 264.819 102.95 263.977C108.176 263.168 112.97 261.362 118.111 260.249C123.587 259.064 129.203 258.42 134.709 257.354C137.188 256.874 139.616 256.165 142.102 255.721C144.823 255.234 147.574 255.051 150.269 254.407C155.495 253.157 160.5 251.141 165.749 249.977C168.109 249.454 170.433 248.754 172.794 248.265C174.968 247.814 176.662 246.618 178.84 247.601C180.6 248.394 182.004 249.755 183.67 250.703C185.83 251.933 188.108 253.034 190.36 254.092C194.886 256.218 199.579 257.688 204.311 259.283C209.282 260.96 214.163 262.872 219.312 263.98C224.591 265.115 229.977 265.431 235.293 266.329C246.179 268.167 256.973 268.992 268.023 269.059C273.608 269.093 279.193 268.445 284.765 268.522C289.699 268.59 293.987 269.678 298.498 267.111C305.706 263.009 314.066 256.829 313.889 247.853C313.728 239.724 308.747 231.957 304.075 225.545C298.401 217.758 290.311 212.275 282.383 206.904C273.933 201.18 264.441 197.225 255.56 192.228C251.018 189.673 246.829 186.924 241.897 185.108C239.543 184.241 237.246 183.236 234.919 182.303C233.047 181.552 230.344 181.137 228.741 179.892C227.741 179.114 227.645 177.937 227.381 176.782C226.797 174.224 225.878 171.799 224.987 169.332C223.268 164.57 222.125 159.719 221.386 154.724C220.682 149.963 219.118 145.011 219.928 140.171C225.254 145.216 230.728 150.065 236.178 154.975C238.221 156.815 240.225 158.694 242.278 160.523C243.82 161.897 245.747 163.936 247.896 164.344C250.64 164.864 249.637 161.893 251.521 161.432C252.673 161.151 256.146 164.016 257.056 164.581C262.827 168.168 269.216 170.44 275.563 172.882C282.218 175.441 289.063 177.715 296.224 178.359C302.839 178.955 309.603 178.191 315.987 176.426C328.699 172.913 338.054 164.576 344.92 153.77C352.742 141.456 358.434 127.031 357.974 112.331Z" fill="black"/>
<path fill-rule="evenodd" clip-rule="evenodd" d="M163.68 85.4861C163.678 85.4897 163.659 85.5295 163.659 85.5295C163.682 85.5135 163.689 85.4992 163.68 85.4861Z" fill="black"/>
<path fill-rule="evenodd" clip-rule="evenodd" d="M164.294 85.6453C164.246 85.253 164.143 84.8691 163.986 84.493C163.565 85.1461 163.188 85.426 163.741 86.1177C163.925 85.9601 164.109 85.8029 164.294 85.6453Z" fill="black"/>
<path fill-rule="evenodd" clip-rule="evenodd" d="M193.609 178.999C194.079 178.508 193.256 178.323 192.943 178.317C192.974 178.843 192.708 180.104 193.443 180.348C193.267 179.872 193.322 179.422 193.609 178.999Z" fill="black"/>
<path fill-rule="evenodd" clip-rule="evenodd" d="M181.19 76.3872C180.381 77.9168 182.169 78.3912 183.203 77.6524C183.982 77.0968 184.442 75.6805 184.57 74.7719C184.984 71.8321 182.882 69.0336 181.834 66.4248C181.564 65.7506 181.193 63.4379 180.321 63.3745C179.319 63.3014 179.245 65.4313 179.232 65.9809C179.194 67.638 179.642 69.326 180.167 70.8902C180.733 72.5766 182.136 74.6009 181.19 76.3872Z" fill="black"/>
<path fill-rule="evenodd" clip-rule="evenodd" d="M185.038 70.2529C188.148 72.9637 190.636 68.4487 190.418 65.7782C190.365 65.1166 189.908 62.6767 188.626 63.5646C187.982 64.0106 188.531 65.4602 188.224 66.0966C186.737 69.1819 185.304 64.396 184.303 64.0203C183.084 63.5626 182.962 65.13 182.964 65.9679C182.967 67.6311 183.775 69.1514 185.038 70.2529Z" fill="black"/>
<path fill-rule="evenodd" clip-rule="evenodd" d="M173.75 70.6741C174.483 69.5449 175.383 68.0304 175.483 66.6774C175.637 64.5747 174.386 64.7502 173.355 66.2173C172.628 67.2538 172.082 69.0117 170.476 68.5746C168.493 68.0361 169.099 65.4252 167.988 64.1848C165.185 67.8711 170.49 75.6983 173.75 70.6741Z" fill="black"/>
<path fill-rule="evenodd" clip-rule="evenodd" d="M177.952 81.9553C179.112 82.2006 182.135 82.1104 181.087 80.3721C179.766 78.1829 175.373 81.4094 177.952 81.9553Z" fill="black"/>
<path fill-rule="evenodd" clip-rule="evenodd" d="M218.574 16.6636C218.786 16.0448 218.494 15.9324 217.988 15.4451C217.509 15.8782 218.123 16.3338 218.574 16.6636Z" fill="black"/>
<path fill-rule="evenodd" clip-rule="evenodd" d="M240.201 128.744C240.966 128.863 241.213 128.467 240.939 127.556C239.733 127.479 239.487 127.875 240.201 128.744Z" fill="black"/>
<path fill-rule="evenodd" clip-rule="evenodd" d="M198.429 33.1335C199.273 33.5113 198.95 34.2862 198.935 34.941C199.37 34.4787 200.248 33.6331 199.89 32.969C199.34 31.9451 197.9 32.8971 198.429 33.1335Z" fill="black"/>
<path fill-rule="evenodd" clip-rule="evenodd" d="M169.687 20.244C169.559 19.9982 169.43 19.7525 169.302 19.5068C168.778 19.9186 167.969 21.0071 168.801 21.5376C169.143 21.1318 169.438 20.7009 169.687 20.244Z" fill="black"/>
<path fill-rule="evenodd" clip-rule="evenodd" d="M179.811 27.4692C180.861 28.275 180.358 25.801 180.326 25.5992C180.17 25.8892 179.281 27.0618 179.811 27.4692Z" fill="black"/>
<path fill-rule="evenodd" clip-rule="evenodd" d="M179.23 26.2129C179.15 26.0086 179.069 25.8039 178.989 25.5992C178.563 25.985 178.042 26.7726 178.745 27.2238C178.938 26.9078 179.099 26.5707 179.23 26.2129Z" fill="black"/>
<path fill-rule="evenodd" clip-rule="evenodd" d="M185.897 34.7082C185.983 34.7854 186.069 34.863 186.154 34.941C186.5 34.257 186.107 33.7436 185.453 33.7225C185.499 34.1063 185.648 34.4349 185.897 34.7082Z" fill="black"/>
<path fill-rule="evenodd" clip-rule="evenodd" d="M157.766 111.639C158.182 111.361 158.56 111.044 158.9 110.689C157.668 109.951 158.406 111.55 156.923 110.568C156.603 111.001 157.125 111.969 157.766 111.639Z" fill="black"/>
<path fill-rule="evenodd" clip-rule="evenodd" d="M209.559 178.723C210.027 178.019 210.112 178.039 209.472 177.505C208.938 178.375 208.993 178.151 209.559 178.723Z" fill="black"/>
<path fill-rule="evenodd" clip-rule="evenodd" d="M111.604 66.6531C111.859 66.9134 112.114 67.1742 112.369 67.4341C112.488 67.0933 113.138 66.1299 112.697 65.8094C112.333 66.0905 111.968 66.3716 111.604 66.6531Z" fill="black"/>
<path fill-rule="evenodd" clip-rule="evenodd" d="M120.679 69.2302C120.271 69.1636 119.297 68.8729 119.072 69.2436C119.668 69.7215 121.012 69.285 120.679 69.2302Z" fill="black"/>
</svg>
