<svg width="415" height="401" viewBox="0 0 415 401" fill="none" xmlns="http://www.w3.org/2000/svg">
<g clip-path="url(#clip0)">
<path fill-rule="evenodd" clip-rule="evenodd" d="M236.2 135.888C264.95 137.994 289.134 150.392 314.796 160.604C343.308 171.95 378.677 177.667 394.862 199.026C411.361 220.8 408.947 248.785 399.995 273.039C391.637 295.684 365.001 309.873 346.942 328.859C326.888 349.943 318.011 378.677 287.973 390.814C256.221 403.644 216.961 403.473 182.756 395.198C148.845 386.994 118.904 368.954 100.579 345.478C83.5601 323.674 86.0672 296.956 86.2073 271.509C86.3293 249.342 91.0582 228.108 101.339 207.406C112.213 185.51 122.32 161.624 147.376 148.337C172.682 134.917 205.622 133.647 236.2 135.888Z" fill="#03CEA4" fill-opacity="0.64"/>
<path fill-rule="evenodd" clip-rule="evenodd" d="M118.604 121.313C119.906 134.189 121.209 147.066 122.512 159.942C129.604 155.98 136.696 152.018 143.788 148.056V177.39V185.1C143.788 185.783 143.375 188.126 143.788 188.717C144.139 189.218 146.738 189.233 147.353 189.317C151.363 189.867 155.382 190.356 159.408 190.791C170.017 191.938 181.371 193.581 192.021 192.263C201.278 191.117 210.252 187.894 218.709 184.143C221.679 182.827 224.606 181.417 227.48 179.911C228.089 179.592 230.301 178.838 230.632 178.188C230.902 177.657 230.268 175.791 230.183 175.233C229.826 172.88 229.468 170.528 229.111 168.175L224.119 135.321L233.548 144.539C234.287 145.261 235.69 147.312 236.712 147.632C237.461 147.866 239.317 147.14 240.058 147C245.397 145.993 250.736 144.985 256.075 143.979C257.319 143.744 260.122 143.753 261.171 143.017C261.735 142.621 261.762 141.815 261.961 141.051C263.263 136.056 264.566 131.062 265.867 126.068C266.102 125.168 267.411 122.332 267.078 121.426C266.959 121.101 266.381 120.879 266.028 120.668C257.97 115.849 249.911 111.031 241.854 106.213C237.439 103.573 233.025 100.934 228.61 98.2945C226.762 97.1885 224.49 95.1962 222.395 94.5777C221.094 94.1938 219.202 94.4814 217.856 94.4436C215.121 94.3673 212.386 94.2909 209.651 94.2146C209.223 94.2028 207.723 93.9038 207.363 94.1508C207.063 94.3563 207.187 94.6427 207.089 95.1325C206.848 96.329 206.847 97.619 206.728 98.8335C206.633 99.8078 206.822 101.595 206.373 102.477C206.086 103.041 206.45 102.816 206.062 103.089C205.601 103.413 204.127 103.309 203.578 103.371C200.898 103.676 198.217 103.981 195.537 104.285C192.351 104.648 189.129 105.328 185.928 105.014C181.074 104.54 175.841 104.564 171.076 103.563C169.837 103.302 169.391 102.619 168.436 101.686C166.571 99.8627 164.726 98.0187 162.84 96.2153C161.916 95.3315 162.312 95.4814 161.36 95.8165C160.166 96.2364 158.955 97.2502 157.875 97.8944C153.736 100.363 149.596 102.831 145.457 105.3L120.185 120.37C119.658 120.684 119.131 120.999 118.604 121.313Z" fill="#FD3E90"/>
<path fill-rule="evenodd" clip-rule="evenodd" d="M360.321 122.914C355.111 142.276 344.634 163.388 323.525 169.56C318.393 171.06 313.401 172.193 308.071 171.621C307.563 171.567 307.139 171.637 306.656 171.646C305.792 171.662 306.538 171.966 305.568 171.673C304.812 171.444 304.105 170.873 303.317 170.62C301.223 169.949 298.99 169.82 296.861 169.277C291.63 167.945 286.24 166.301 281.172 164.463C278.785 163.599 276.592 162.394 274.347 161.235C272.065 160.058 269.647 159.326 267.339 158.246C265.516 157.393 262.392 156.28 261.11 154.679C259.742 152.971 261.634 149.335 262.175 147.52C264.013 141.342 266.202 135.255 267.584 128.954C272.355 134.367 278.978 137.72 285.833 139.882C289.553 141.055 293.38 141.903 297.248 142.434C300.761 142.916 304.551 143.499 308.072 142.815C310.73 142.298 314.066 141.102 315.965 139.116C316.642 138.407 317.455 137.107 317.076 136.077C316.594 134.77 315.19 135.385 314.43 134.409C313.768 133.559 313.872 131.572 313.661 130.537C313.288 128.705 312.775 126.923 312.149 125.16C310.935 121.737 309.421 118.305 309.059 114.662C308.744 111.502 309.479 108.513 311.089 105.771C311.85 104.474 313.762 100.947 315.627 101.094C317.675 101.255 314.913 109.706 314.822 111.43C314.464 118.264 315.401 125.546 318.983 131.537C320.355 133.83 322.338 136.501 325.267 136.785C328.369 137.086 330.871 134.697 332.347 132.279C335.95 126.381 334.134 118.288 332.309 112.106C330.071 104.522 324.229 99.2949 320.536 92.4835C326.05 93.0261 329.004 96.4558 331.833 100.807C334.95 105.597 337.375 111.349 338.571 116.922C339.175 119.739 338.758 122.566 338.762 125.41C338.763 126.355 338.763 129.84 340.336 129.703C342.018 129.557 342.595 125.626 342.842 124.426C343.409 121.676 344.022 118.925 344.514 116.161C345.386 111.27 345.773 106.261 346.816 101.404C346.992 100.584 347.343 98.3058 348.599 98.9208C349.567 99.3944 349.411 102.917 349.447 103.736C349.534 105.754 349.656 107.772 349.673 109.792C349.697 112.786 349.088 115.885 349.387 118.86C349.582 120.804 350.648 122.953 351.969 120.331C353.28 117.73 353.547 114.487 354.277 111.691C355.045 108.755 355.837 105.776 357.466 103.168C357.918 102.444 358.404 101.296 359.408 101.636C360.138 101.884 360.676 103.577 360.902 104.174C361.92 106.875 361.747 109.877 361.683 112.704C361.604 116.168 361.224 119.555 360.321 122.914ZM258.737 127.938C258.458 127.85 257.276 127.741 256.983 127.715C256.639 127.686 257.029 127.066 256.197 127.242C256.358 127.632 256.643 127.892 257.053 128.022C255.802 128.437 254.88 127.414 254.024 127.282C253.206 127.156 253.171 127.282 252.363 128.128C251.488 127.083 251.652 127.735 250.933 127.735C250.671 127.736 250.66 128.123 250.234 128.076C249.862 128.036 249.823 127.483 249.603 127.418C248.409 127.065 247.181 128.845 245.826 127.301C245.498 128.907 241.739 126.895 240.293 127.177C238.777 127.472 239.431 128.005 238.206 127.095C237.038 126.229 237.364 126.804 236.006 127.514C236.038 127.497 235.239 128.024 235.314 128.033C234.374 127.925 234.427 126.974 233.237 127.024C231.977 127.078 231.439 128.045 230.285 126.855C230.035 127.746 229.983 127.362 229.392 127.587C229.067 127.663 228.783 127.579 228.539 127.336C228.465 127.581 228.303 127.732 228.051 127.787C227.408 127.843 226.2 127.931 225.615 127.628C224.738 127.172 225.443 126.997 224.835 126.485C224.562 127.897 223.965 127.597 222.704 127.729C221.743 127.83 221.531 127.541 220.613 127.401C219.708 127.262 218.54 127.606 217.657 127.752C217.293 127.813 216.805 128.062 216.434 127.975C216.1 127.896 215.957 127.642 215.758 127.575C215.515 127.496 215.567 127.288 215.148 127.187C214.86 127.119 214.343 127.384 214.054 127.429C211.997 127.756 210.022 127.76 208.06 126.968C209.026 128.63 205.801 127.732 205.226 127.044C204.508 128.146 203.638 127.368 202.19 127.454C200.795 127.537 198.697 127.955 198.131 126.255C198.021 126.6 197.229 127.604 196.914 127.757C196 128.2 195.891 127.544 195.041 127.277C193.883 126.913 194.125 127.604 193.407 127.744C192.196 127.981 191.541 127.146 190.471 126.702C190.426 127.392 190.403 127.817 189.793 128.247C189.253 126.323 187.327 128.404 187.658 125.833C186.925 126.3 185.894 126.659 185.685 127.604C186.911 127.273 185.816 128.058 185.764 128.084C185.602 128.167 185.055 127.415 184.928 127.309C184.893 127.663 184.859 128.018 184.824 128.373C184.336 128.134 183.878 127.706 183.482 127.492C183.124 127.299 183.636 126.897 183.033 126.869C182.715 126.854 182.383 127.528 182.049 127.586C181.539 127.673 181.784 126.957 181.571 126.981C181.245 127.017 180.715 127.483 180.469 127.474C179.663 127.445 180.208 127.077 179.593 126.909C178.493 126.607 178.563 127.312 177.773 127.566C175.963 128.147 176.145 125.471 174.305 127.256C173.864 127.683 173.581 128.342 172.978 128.306C171.728 128.229 172.167 126.779 172.421 126.069C172.683 126.196 167.857 128.623 167.895 128.528C167.925 127.946 168.684 127.497 168.006 126.98C167.451 128.146 166.868 128.166 165.588 128.383C164.966 128.488 164.844 128.629 164.178 128.376C163.754 128.215 163.47 127.553 163.048 127.517C163.105 127.522 162.331 128.098 162.213 128.15C161.515 128.458 161.073 128.109 160.395 128.236C159.816 128.344 159.588 128.825 159.013 128.693C158.245 128.518 158.696 127.62 157.639 127.87C157.278 127.956 157.061 128.637 156.492 128.778C155.604 128.998 154.517 128.588 153.579 128.802C152.835 128.972 152.283 129.044 151.632 129.079C151.106 129.108 151.322 128.708 150.354 129.18L149.944 128.167C149.459 128.594 148.975 129.02 148.49 129.447C148.399 129.065 148.34 128.678 148.316 128.285C147.593 128.994 146.683 129.115 145.711 129.179C144.66 129.248 143.876 129.472 142.852 129.66C142.529 129.72 141.695 129.815 141.429 129.704C141.468 129.72 140.931 129.502 141.093 129.543C141.024 129.404 140.959 129.263 140.899 129.119C140.809 128.719 140.515 128.702 140.019 129.066C139.762 129.028 139.264 128.698 139.008 128.779C138.348 128.989 138.438 129.49 137.78 129.416C137.353 129.368 137.135 128.751 136.691 128.709C136.011 128.645 135.421 129.39 134.809 129.553C136.672 129.058 132.392 129.442 133.723 129.476C132.85 129.454 131.945 129.412 131.139 129.794C130.693 129.496 131.234 128.896 130.784 128.65C130.376 128.426 130.344 129.017 130.296 129.03C130.554 128.959 130.425 129.461 130.168 129.551C129.365 129.829 128.722 129.121 128.681 128.418C127.999 129.424 127.807 129.02 126.804 129.082C125.814 129.143 124.961 129.651 123.971 129.641C122.013 129.623 120.685 128.957 120.031 127.246C122.117 127.495 124.217 126.181 126.257 126.491C126.928 126.592 127.346 127.085 127.934 126.998C128.657 126.89 129.163 126.117 130.091 126.034C132.137 125.851 134.155 126.029 136.216 125.722C138.677 125.355 141.246 125.137 143.731 125.316C145.651 125.455 147.206 124.736 149.154 124.597C151.672 124.418 154.21 124.386 156.733 124.256C159.324 124.123 162.113 123.718 164.697 123.848C165.504 123.888 166.199 123.966 166.999 123.919C167.338 123.899 167.659 123.674 168.014 123.707C168.477 123.751 168.676 124.215 169.156 124.199C169.971 124.172 170.843 123.514 171.813 123.496C173.407 123.466 174.995 123.47 176.593 123.381C178.001 123.302 179.508 122.981 180.909 122.998C181.897 123.01 182.141 123.834 182.717 123.92C183.753 124.072 188.991 121.154 189.444 123.774C192.171 121.946 195.828 123.493 198.864 123.15C202.763 122.709 206.734 123.102 210.661 122.945C214.655 122.785 218.765 122.933 222.744 123.302C224.393 123.455 225.985 123.598 227.638 123.505C228.375 123.464 229.227 123.28 229.963 123.446C230.142 123.487 231.508 124.421 231.339 124.447C232.085 123.791 231.58 123.695 232.893 123.661C233.906 123.635 234.863 123.85 235.869 123.908C237.676 124.012 239.496 123.767 241.299 123.821C242.804 123.867 244.276 124.084 245.789 124.094C247.42 124.106 249.346 124.151 250.526 125.438C250.401 125.034 250.277 124.63 250.152 124.226C251.973 124.365 253.771 125.001 255.612 124.704C255.146 125.141 254.674 125.497 254.496 126.138C255.488 126.014 256.16 125.336 257.205 125.331C258.083 125.326 258.266 125.756 259.192 125.2C259.306 125.882 259.42 126.564 259.534 127.246C260.817 126.951 259.975 126.014 260.069 125.17C261.112 125.476 261.995 125.124 261.584 126.593C261.267 127.725 259.823 128.283 258.737 127.938ZM256.934 140.552C256.486 141.783 252.616 141.08 251.7 140.949C250.518 140.782 249.165 140.516 248.076 140.384C247.946 140.213 247.789 140.069 247.607 139.95C247.469 140.137 247.296 140.27 247.087 140.347C246.587 140.454 246.585 140.96 245.928 140.848C245.897 141.596 246.428 141.171 246.835 141.442C245.81 142.114 246.279 141.341 245.704 141.353C245.562 141.155 245.363 141.077 245.109 141.12C244.785 141.202 244.487 141.338 244.214 141.527C243.957 141.792 243.738 141.805 243.556 141.568C243.381 141.396 243.167 141.29 242.915 141.25C241.906 141.41 241.624 141.848 240.488 141.777C238.864 141.674 237.108 142.093 235.51 141.873C234.52 141.736 232.865 140.213 232.415 141.698C231.73 140.597 230.64 139.848 229.984 138.723C233.038 138.55 236.091 138.344 239.147 138.236C241.823 138.142 244.751 138.437 247.251 138.313C249.594 138.198 252.075 137.944 254.466 137.735C257.002 137.513 257.841 138.058 256.934 140.552ZM177.265 140.734C178.374 141.034 179.43 140.353 180.506 140.568C180.861 140.64 181.597 141.273 181.759 141.286C182.055 141.309 182.926 140.687 183.299 140.603C185.661 140.077 188.522 140.133 190.884 140.456C192.135 140.627 192.327 140.067 193.42 139.795C194.555 139.511 196.169 139.729 197.364 139.651C200.176 139.467 202.988 139.598 205.781 139.397C208.649 139.19 211.502 139.078 214.371 138.934C216.326 138.835 221.022 137.744 222.642 139.164C223.978 140.335 222.257 142.369 220.921 142.833C219.922 143.179 219.443 142.449 218.701 142.519C217.857 142.598 218.151 143.575 217.397 142.669C216.93 143.57 213.994 143.186 213.152 143.245C211.319 143.375 209.767 143.735 208.519 142.061C208.604 142.543 208.688 143.027 208.773 143.509C207.118 142.644 205.341 142.921 203.905 143.223C203.193 143.372 201.009 144.405 200.238 143.96C199.708 143.653 200.643 143.129 199.748 142.868C199.279 142.73 198.47 143.493 197.897 143.455C196.311 143.348 196.761 142.304 195.203 143.633C194.676 143.186 194.5 142.426 194.57 141.775C193.438 142.72 193.533 144.295 191.51 144.006C190.756 143.899 190.618 143.146 190.225 143.007C189.387 142.711 189.292 143.243 188.567 143.665C188.293 143.823 187.959 144.079 187.637 144.111C186.975 144.176 186.87 143.878 186.779 143.888C186.338 143.935 185.783 144.154 185.261 143.998C184.791 143.857 184.654 143.046 183.828 143.236C183.036 143.418 183.03 143.944 183.173 144.731C182.393 144.652 181.921 144.227 181.337 143.766C180.748 145.111 179.508 143.997 178.822 145.132C177.928 144.087 177.355 144.375 176.246 143.355C176.3 143.78 176.355 144.206 176.409 144.632C175.544 144.469 175.159 143.871 174.42 144.662C173.704 143.355 171.531 145.217 170.415 143.955C169.918 145.553 166.627 145.171 165.237 145.199C164.005 145.223 163.093 145.125 161.89 145.405C160.826 145.652 159.352 145.909 158.352 145.795C157.699 145.721 156.984 145.604 156.17 145.691C154.996 145.815 153.982 146.41 152.766 146.129C150.935 145.705 149.813 143.351 151.852 142.317C153.248 141.609 155.762 141.871 157.298 141.74C159.843 141.524 162.696 141.07 165.244 141.276C167.233 141.437 169.045 140.973 171.073 140.777C172.6 140.629 175.103 140.363 176.1 141.845C176.482 141.412 176.442 140.511 177.265 140.734ZM149.401 161.016C149.128 159.683 160.765 158.949 161.92 158.862C164.345 158.679 166.776 158.549 169.207 158.488C171.205 158.439 173.07 158.812 175.069 158.512C176.935 158.232 179.188 157.657 180.813 158.951C181.052 157.181 188.056 158.043 189.389 158.048C195.19 158.068 200.742 158.082 206.353 157.73C209.56 157.529 212.965 157.259 216.173 157.416C217.619 157.487 218.784 157.864 220.223 157.536C221.161 157.323 222.172 156.878 223.07 157.507C224.12 158.243 224.569 160.741 223.846 161.783C223.319 162.543 222.852 162.459 222.01 162.327C220.716 162.126 219.754 161.832 218.435 162.347C218.648 162.264 217.55 162.504 217.641 162.497C216.147 162.606 214.096 163.628 212.808 162.45C213.324 162.539 214.074 161.637 213.424 161.562C212.935 161.507 212.625 162.02 212.244 162.191C210.939 162.779 210.272 162.595 209.493 161.363C207.922 162.694 207.753 162.325 207.063 160.687C206.532 161.087 206.418 162.034 206.001 162.344C205.938 162.39 206.196 162.966 205.894 162.942C205.614 162.92 205.522 162.47 205.307 162.435C205.17 162.412 205.098 162.018 204.966 161.994C204.824 161.968 204.677 162.22 204.515 162.213C204.084 162.193 202.85 163.092 203.292 161.83C202.638 162.644 202.357 162.125 202.121 161.384C201.365 161.946 200.611 162.508 199.855 163.07C199.504 162.114 198.9 162.374 198.14 162.708C198.369 162.044 198.225 161.416 197.651 161.878C197.317 162.145 197.094 162.993 196.754 163.353C195.375 161.987 194.874 162.362 192.969 162.539C192.242 162.607 191.339 162.739 190.689 162.308C190.118 161.931 189.795 160.544 188.819 161.664C189.036 161.415 188.695 163.329 188.635 163.633C188.205 163.349 187.839 162.999 187.537 162.585C186.976 163.674 185.5 162.697 184.292 162.919C182.389 163.27 180.426 163.86 178.745 162.473C178.626 162.921 177.249 163.491 177.247 163.509C177.329 162.716 177.84 162.994 176.797 162.844C176.604 162.816 176.387 163.154 176.205 163.191C175.583 163.317 174.857 163.198 174.23 163.18C171.622 163.107 169.236 163.673 166.661 163.878C165.793 163.946 164.763 164.082 163.948 163.762C163.109 163.431 163.132 163.057 162.283 163.269C162.551 163.202 161.752 164.024 161.795 163.994C161.681 164.075 161.205 163.673 161.035 163.704C160.986 163.879 160.937 164.054 160.887 164.23C160.682 164.205 160.478 164.18 160.273 164.156C159.713 164.229 159.208 163.674 158.682 163.656C158.779 163.659 157.263 164.212 157.332 164.245C156.273 163.728 156.577 163.878 155.234 164.193C153.965 164.49 152.701 164.421 151.399 164.606C147.61 165.145 149.867 163.286 149.401 161.016ZM146.055 179.558C145.343 178.569 147.238 178.227 147.844 178.139C148.839 177.996 150.16 178.282 150.824 178.127C151.834 177.892 152.809 177.33 153.946 177.178C155.382 176.986 156.829 176.954 158.27 176.834C158.75 176.793 159.344 176.632 159.812 176.659C160.507 176.7 160.796 177.06 161.358 177.063C162.315 177.068 163.495 176.476 164.475 176.368C165.731 176.228 166.999 176.163 168.261 176.102C170.919 175.973 173.55 176.026 176.207 176.023C177.418 176.022 180.645 174.791 181.249 176.171C182.09 175.125 184.244 175.267 185.446 175.237C187.561 175.184 189.655 174.984 191.77 174.888C193.58 174.805 195.602 175.185 197.38 174.919C198.36 174.773 198.685 174.465 199.795 174.604C200.621 174.707 201.879 174.28 202.588 174.469C202.551 174.459 203.472 175.017 203.184 175.035C203.501 175.015 203.482 175.232 203.831 175.135C204.289 175.009 204.079 174.445 205.028 174.244C206.51 173.932 208.485 174.293 210.024 174.213C211.516 174.135 213.007 174.102 214.502 174.109C215.189 174.112 216.04 173.951 216.71 174.082C217.037 174.146 217.734 174.566 218.012 174.523C218.8 174.403 219.201 173.867 220.266 173.901C221.472 173.938 222.559 173.922 223.759 173.832C224.92 173.745 225.107 173.582 225.683 174.529C226.254 175.468 226.411 176.69 225.361 177.328C226.043 177.284 226.882 178.179 226.078 178.674C225.581 178.981 224.585 178.29 223.99 178.339C223.257 178.401 222.681 178.78 221.884 178.804C221.045 178.829 220.193 179.036 219.366 179.052C218.505 179.068 217.853 178.691 217.036 178.851C216.317 178.993 216.241 179.57 215.375 179.063C214.945 178.811 214.872 177.878 214.285 177.869C213.499 177.858 213.812 178.852 213.36 179.313C213.239 177.89 212.117 180.245 211.671 178.518C211.26 179.091 209.737 179.893 209 179.433C208.328 179.013 208.551 178.063 208.271 177.378C207.804 178.608 206.554 179.885 206.667 177.645C206.059 178.377 204.418 178.261 204.829 179.542C204.334 179.533 204.217 178.841 203.801 178.789C203.441 178.744 203.156 179.014 203.101 179.01C203.298 179.027 202.512 179.282 202.499 179.285C203.032 179.179 200.965 178.999 201.317 179.002C200.837 178.998 200.25 179.382 199.689 179.381C199.178 179.38 198.67 179.183 198.165 179.127C196.858 178.981 197.13 179.262 196.309 179.664C196.005 179.812 195.929 180.065 195.497 180.033C195.178 180.01 195.059 179.603 195.023 179.6C194.575 179.555 194.906 179.408 194.21 179.476C194.13 179.611 194.051 179.745 193.971 179.879C193.72 180.194 193.394 180.272 192.994 180.115C191.964 180.332 188.55 181.269 188.884 179.533C188.361 179.784 187.838 180.034 187.315 180.285C187.09 178.886 184.247 180.741 183.613 180.834C182.798 180.954 182.723 180.648 181.953 180.485C181.814 180.456 181.535 180.904 181.21 180.84C180.365 180.673 180.214 180.591 180.07 179.693C179.467 180.795 178.966 180.302 177.874 180.483C177.632 180.524 177.477 180.989 177.13 180.909C176.88 180.851 176.873 180.404 176.701 180.346C176.546 180.294 176.569 179.94 176.34 179.89C176.078 179.832 175.184 180.55 174.927 180.661C174.349 180.91 173.399 181.323 172.834 181.2C172.136 181.047 172.447 180.54 171.46 180.598C169.904 180.686 169.255 181.983 168.286 179.94C167.85 180.758 167.905 180.981 167.203 181.251C166.685 181.45 165.371 181.242 164.688 181.217C161.772 181.112 158.905 182.085 156.012 181.83C154.741 181.718 153.669 181.469 152.386 181.672C151.038 181.887 149.72 182.201 148.353 182.328C147.657 182.392 146.204 182.588 145.863 181.718C145.563 180.952 146.683 180.429 146.055 179.558ZM151.775 210.97C147.992 213.447 144.859 216.83 141.386 219.695C137.904 222.567 135.14 225.759 132.009 228.94C129.113 231.88 126.453 234.661 122.953 236.883C120.737 238.289 118.761 240.02 116.486 241.345C114.782 242.338 112.2 243.644 113.031 240.607C113.884 237.495 115.457 234.349 116.823 231.442C118.766 227.311 120.723 223.217 122.824 219.164C123.614 217.641 124.056 216.125 125.308 214.912C126.671 213.591 127.625 211.868 129.118 210.62C135.396 205.373 144.857 209.427 151.775 210.97ZM163.641 212.749C161.925 213.629 160.005 213.847 158.186 214.43C156.636 214.926 155.196 215.808 153.529 215.874C155.046 214.758 156.349 213.243 158.06 212.397C159.984 211.444 161.73 212.137 163.641 212.749ZM238.956 220.087C232.644 218.002 226.768 214.93 220.62 212.458C219.559 212.031 211.26 209.355 211.428 208.081C217.244 207.038 223.234 205.248 229.064 207.2C234.367 208.975 238.681 213.234 242.786 216.798C243.857 217.728 250.482 221.963 249.889 223.312C249.479 224.247 246.287 223.992 245.533 223.8C244.559 223.553 243.999 222.974 243.235 222.338C241.958 221.276 240.545 220.612 238.956 220.087ZM227.304 185.255C228.263 184.392 228.837 183.081 229.752 182.284C230.929 181.26 232.827 181.759 234.113 182.291C237.973 183.887 241.271 186.571 245.107 188.237C249.358 190.083 253.038 192.551 256.871 195.093C260.376 197.417 264.165 199.341 267.742 201.559C271.387 203.82 275.468 205.289 279.163 207.469C282.923 209.688 286.669 211.916 290.283 214.361C296.727 218.722 303.436 223.2 308.204 229.399C310.654 232.586 312.948 236.2 314.746 239.778C316.38 243.031 318.153 247.547 316.035 250.931C314.001 254.18 310.534 256.74 307.599 259.165C306.488 260.083 305.431 261.198 303.99 261.596C302.238 262.08 300.194 261.947 298.392 262.09C288.757 262.854 279.781 262.132 270.286 260.445C261.131 258.819 251.938 257.908 242.712 256.778C237.508 256.14 232.305 255.397 227.171 254.335C224.976 253.881 222.743 253.357 220.596 252.739C218.72 252.199 217.144 251.009 215.215 250.538C207.032 248.537 197.668 247.773 189.567 244.408C196.736 241.49 204.355 239.729 211.703 237.305C219.437 234.754 226.99 232.613 235.142 231.888C239.336 231.515 243.09 230.467 247.125 229.369C250.971 228.323 254.985 228.003 258.935 227.534C260.691 227.325 265.704 227.637 266.286 225.39C267.152 222.043 262.227 221.657 260.128 221.957C257.149 222.382 254.693 223.11 252.414 220.718C250.087 218.275 247.825 215.774 245.455 213.362C241.062 208.89 236.533 203.718 230.322 201.711C222.745 199.264 213.958 201.587 206.398 202.979C198.413 204.449 190.44 205.856 182.604 207.994C179.36 208.878 175.175 210.828 171.807 210.515C168.488 210.206 164.729 209.674 161.521 208.737C160.07 208.313 158.877 207.527 157.579 206.795C155.89 205.842 154.04 205.232 152.248 204.491C148.624 202.994 145.092 201.615 141.182 201.026C137.89 200.53 134.393 200.236 131.203 201.366C128.073 202.475 125.299 204.732 123.115 207.143C120.743 209.763 118.782 212.698 116.838 215.625C115.904 217.029 114.765 218.255 113.798 219.628C112.987 220.782 112.513 222.063 111.654 223.184C109.732 225.691 108.427 228.899 107.262 231.816C105.968 235.056 104.53 238.91 104.839 242.435C104.956 243.767 105.078 245.532 105.604 246.767C106.274 248.338 107.228 248.298 108.605 248.891C110.969 249.909 111.632 252.723 114.688 252.175C117.554 251.66 120.039 249.348 122.13 247.505C124.856 245.104 127.464 242.571 130.072 240.049C132.748 237.459 135.385 234.587 137.514 231.541C138.352 230.342 139.005 228.988 139.996 227.896C141.257 226.505 142.673 226.338 144.386 225.784C159.362 220.939 174.411 216.266 189.856 213.068C193.556 212.301 197.286 211.313 200.921 210.293C204.776 209.211 206.772 210.355 209.954 212.414C216.601 216.716 224.457 219.746 231.859 222.554C234.19 223.438 237.9 223.494 239.722 225.237C228.923 226.848 218.632 229.949 208.216 233.037C203.08 234.559 197.886 235.879 192.731 237.335C187.574 238.792 182.614 240.679 177.528 242.32C172.466 243.954 167.116 244.621 162.006 246.128C156.789 247.667 151.594 248.725 146.238 249.66C140.831 250.605 135.462 251.695 130.036 252.54C127.552 252.927 125.068 253.329 122.611 253.861C120.207 254.383 117.885 255.631 115.469 255.92C104.68 257.213 94.1024 260.092 83.3552 261.719C75.331 262.935 61.3706 264.63 56.1671 256.748C50.9346 248.823 57.3541 239.577 63.082 233.909C66.6417 230.387 70.6415 227.287 74.8381 224.529C79.3296 221.578 83.651 218.392 88.1434 215.444C98.3097 208.775 109.334 203.336 120.256 197.977C125.498 195.405 130.564 192.646 135.663 189.823C138.195 188.422 139.595 190.683 141.596 192.219C143.17 193.428 146.059 196.407 148.261 195.03C148.346 195.526 148.431 196.022 148.516 196.519C149.16 196.231 149.806 195.943 150.451 195.655C150.884 196.767 150.833 197.458 152.043 198.042C152.786 198.401 154.372 198.833 155.081 198.201C155.225 198.641 155.37 199.079 155.515 199.518C156.134 199.472 156.254 197.737 156.371 197.331C157.432 198.849 158.9 200.117 160.766 200.546C160.775 200.447 160.463 199.2 160.476 199.193C161.066 198.839 161.811 200.354 162.124 200.678C163.161 201.753 163.78 201.586 164.927 200.719C165.01 200.807 165.398 201.799 165.454 201.781C165.703 201.703 166.173 200.825 166.225 200.745C166.154 201.9 168.432 202.133 169.236 201.885C169.056 201.547 168.875 201.208 168.695 200.87C171.497 200.504 172.597 203.418 175.287 203.27C177.276 203.16 175.681 202.735 176.806 201.901C177.789 201.173 177.964 202.766 178.061 202.716C178.249 202.524 178.394 202.303 178.497 202.053C178.861 203.417 181.758 204.642 181.458 202.398C182.598 202.844 183.407 203.585 184.668 203.741C186.201 203.931 187.838 203.613 189.367 203.489C192.662 203.22 195.769 202.562 198.739 201.084C200.5 200.208 202.374 199.413 204.03 198.356C205.415 197.471 208.043 194.785 209.888 195.942C209.415 194.578 211.639 195.842 211.71 194.085C212.067 194.348 212.425 194.611 212.782 194.875C212.996 194.416 212.936 193.691 213.223 193.29C213.617 192.74 213.809 193.064 214.145 192.754C214.521 192.408 214.849 191.48 215.3 191.216C215.764 190.945 216.31 191.269 216.81 191.031C217.571 190.669 220.843 187.137 220.289 190.164C221.696 189.696 220.612 189.268 220.787 188.35C221.14 186.51 221.999 187.834 222.855 187.994C224.257 188.257 224.228 187.123 225.01 186.299C225.723 185.546 227.065 185.209 226.603 183.901C227.131 184.18 227.243 184.725 227.304 185.255ZM142.827 145.967C141.723 147.171 140.896 146.656 139.669 146.48C139.537 146.049 139.313 145.99 138.996 146.301C138.632 146.505 138.241 146.64 137.822 146.704C136.815 146.947 135.77 146.844 134.785 147.212C134.814 146.889 135.16 146.315 134.938 145.987C133.903 146.689 133.261 147.134 131.989 147.148C130.959 147.158 129.15 146.388 128.295 147.309C128.268 146.95 128.242 146.592 128.216 146.234C127.797 146.438 127.432 146.711 127.123 147.054C127.064 146.523 127.031 146.121 126.672 145.692C125.992 147.062 125.246 147.095 123.924 146.571C124.109 146.644 122.6 145.778 122.658 146.018C122.181 144.05 129.711 144.213 130.502 144.135C132.477 143.94 134.451 143.827 136.428 143.648C138.303 143.48 139.703 143.193 141.001 144.725C140.422 142.513 145.894 142.622 142.827 145.967ZM56.4836 111.656C56.6911 115.001 57.4516 118.556 56.1231 121.776C55.0552 124.363 52.9248 127.286 50.6296 128.974C45.9303 132.432 41.9474 128.201 41.2931 123.551C40.6115 118.701 41.9627 112.775 46.2286 109.785C48.7776 107.999 51.2457 108.122 54.1802 108.71C54.8693 108.848 55.9883 108.795 56.3824 109.465C56.4749 109.622 56.392 111.653 56.4836 111.656ZM118.897 156.221C118.086 156.622 117.236 156.857 116.521 157.402C116.272 157.592 116.187 158.024 115.924 158.183C115.444 158.474 114.757 158.281 114.257 158.521C113.429 158.917 112.835 159.484 111.851 159.849C110.389 160.392 109.108 161.135 107.726 161.84C105.425 163.016 102.954 164.024 100.548 164.981C99.3328 165.463 95.9735 166.405 96.0897 168.145C95.8179 168.217 95.5404 167.636 94.9728 167.682C94.1941 167.745 93.1651 168.627 92.3565 168.844C90.8439 169.249 89.6731 169.285 89.6731 171.173C89.1918 170.853 89.0694 170.069 88.4288 169.965C87.7078 169.848 87.4045 170.61 86.8278 170.847C86.1486 171.126 85.3039 170.858 84.6314 171.155C84.3373 171.46 84.0103 171.726 83.6506 171.952C83.2847 171.993 82.9204 171.983 82.5582 171.919C81.1302 172.216 79.8163 172.742 78.3849 173.014C76.9901 173.281 76.0346 173.378 76.6213 174.993C75.1289 175.279 74.7647 173.729 73.0811 174.296C71.0174 174.99 69.0886 175.491 66.9346 175.915C65.8359 176.131 64.688 176.613 63.5815 176.726C62.792 176.807 62.0551 176.531 61.2776 176.617C60.3408 176.719 59.5878 177.144 58.6182 177.16C57.6984 177.176 56.733 177.014 55.8298 176.856C55.9576 177.212 56.1173 177.553 56.309 177.88C55.6846 177.752 55.3962 177.017 54.8668 176.908C54.3113 176.795 53.8135 177.356 53.3509 177.231C53.1538 177.178 53.2849 176.583 52.9327 176.47C52.6111 176.367 52.4759 176.488 52.1572 176.44C52.051 176.423 50.7188 176.353 50.5064 176.463C50.1355 176.655 50.511 177.016 50.4371 177.07C49.1842 177.977 49.1688 177.488 48.6104 176.539C47.7902 175.147 46.8011 176.026 45.3104 175.782C43.6488 175.511 42.3399 176.228 40.7048 176.126C38.9411 176.016 36.8684 174.724 35.3088 173.969C31.9416 172.34 28.6578 170.798 25.83 168.331C20.3017 163.507 15.8043 157.574 13.1526 150.783C10.3035 143.486 9.76363 135.877 9.99231 128.136C10.1299 123.481 10.5105 118.828 11.26 114.227C11.776 111.063 11.8841 105.438 15.5288 103.997C16.1553 111.407 14.1782 118.958 15.4251 126.321C15.8006 128.538 16.7162 131.493 18.4492 133.135C21.0149 135.566 21.6152 132.052 21.8471 130.111C22.279 126.505 23.0814 122.92 23.6498 119.332C24.2173 115.745 24.6185 112.118 25.4076 108.569C25.6956 107.275 28.0164 97.799 29.7199 98.2478C29.3752 105.142 28.4599 111.917 28.4238 118.836C28.4097 121.611 28.1558 124.542 28.5649 127.299C28.7757 128.718 30.0954 132.881 32.3652 132.534C34.4658 132.213 32.1565 129.28 31.9603 128.15C31.4409 125.156 32.103 121.432 32.5872 118.461C33.5041 112.838 35.549 107.079 38.8913 102.38C41.8851 98.173 46.4945 94.1674 52.0477 94.9095C54.42 95.2267 56.2712 95.8035 57.4632 97.9245C58.3988 99.5889 62.0833 101.48 59.9479 103.564C58.0042 105.462 54.8602 103.943 52.6995 103.491C50.0538 102.937 47.2185 103.603 45.0059 105.121C41.2097 107.724 39.0465 112.379 38.3404 116.744C37.3886 122.63 39.9327 138.036 49.3028 134.584C55.5278 132.29 60.2164 124.038 59.6936 117.72C59.4841 115.192 58.4743 110.391 62.0481 109.708C66.6267 108.834 67.2735 113.775 66.8097 116.986C66.1359 121.656 63.6143 125.999 60.7296 129.692C58.2154 132.911 55.2913 134.923 52.2659 137.582C51.3702 138.368 49.0854 140.137 49.4692 141.601C49.8899 143.205 53.4803 143.661 54.9179 143.925C62.0302 145.228 70.0508 144.029 77.1511 143.12C91.7442 141.248 106.145 136.641 118.111 128.169C118.595 133.411 119.204 138.635 119.429 143.896C119.537 146.449 119.565 149.04 119.863 151.58C120.047 153.142 120.71 155.324 118.897 156.221ZM78.4335 174.485C77.8605 174.778 78.4799 173.004 78.3206 173.591C79.1765 173.891 79.2143 174.189 78.4335 174.485ZM138.97 111.051C139.879 110.07 142.364 107.736 143.152 109.951C143.446 109.007 143.484 107.608 144.616 108.883C145.067 107.317 150.042 107.463 151.275 107.394C155.22 107.173 159.181 107.055 163.113 106.671C171.192 105.883 179.412 106.29 187.52 106.264C189.276 106.258 191.027 106.165 192.77 106.414C194.452 106.655 196.22 107.33 197.934 107.083C199.458 106.864 200.458 106.453 202.026 106.629C203.904 106.839 205.726 106.989 207.62 106.982C215.998 106.952 224.371 107.285 232.75 107.298C234.383 107.3 236.339 106.988 237.872 107.667C238.439 107.919 239.059 108.756 239.493 108.848C239.989 108.953 239.694 108.194 240.36 108.537C241.25 108.996 240.561 110.406 239.972 110.63C240.325 110.496 239.336 110.364 239.435 110.359C238.966 110.384 238.566 110.736 238.062 110.714C237.294 110.681 236.652 110.223 236.034 109.819C236.023 109.984 236.363 111.082 235.975 111.137C235.641 111.185 235.329 110.103 235.295 109.851C233.421 111.47 231.435 110.568 229.109 110.772C227.459 110.918 224.019 111.995 222.868 110.309C222.82 110.668 222.673 110.982 222.427 111.251C222.098 111.741 221.814 111.7 221.574 111.125C221.492 111.128 220.691 111.299 220.675 111.298C220.111 111.254 219.38 111.056 218.806 111.008C217.918 110.933 218.082 111.566 217.374 111.576C216.988 111.582 216.003 111.036 215.329 111.002C214.163 110.942 212.971 111.427 211.82 111.28C211.028 111.179 210.312 110.548 209.534 110.523C208.565 110.492 208.251 111.215 207.484 110.199C207.327 110.157 207.229 110.755 207.167 110.765C207.182 110.762 206.436 110.871 206.348 110.904C206.195 110.962 205.599 111.229 205.418 111.232C205.026 111.239 204.813 110.964 204.398 110.958C203.711 110.946 201.517 111.539 201.579 110.294C199.127 111.184 197.035 110.837 194.518 111.047C193.363 111.144 192.638 110.993 191.539 110.785C190.164 110.525 189.25 110.852 187.878 110.918C186.56 110.981 186.144 110.435 185.031 109.942C184.592 109.747 184.302 109.491 183.763 109.599C183.456 109.661 183.675 110.167 183.584 110.202C183.111 110.38 182.781 110.191 182.132 110.234C180.935 110.314 180.458 111.294 179.228 110.374C179.636 110.326 180.045 110.276 180.455 110.228C179.278 109.739 177.725 109.49 178.01 111.269C177.006 111.131 177.875 110.462 177.381 110.222C176.888 109.983 176.336 110.384 175.714 110.581C174.073 111.102 172.705 110.844 170.994 110.75C169.049 110.644 164.501 112.197 163.108 110.181C163.066 110.606 162.6 111.789 161.98 111.734C161.778 111.715 162.342 110.459 162.405 110.326C162.086 110.992 160.629 111.118 159.91 111.463C159.991 111.105 160.071 110.748 160.152 110.39C159.485 111.085 159.161 110.661 158.377 110.894C158.033 110.995 157.537 111.688 157.243 111.73C156.902 111.342 156.472 111.175 155.955 111.229C155.611 111.145 155.267 111.128 154.923 111.18C153.546 111.278 152.291 112.026 150.921 111.516C149.735 111.074 149.276 109.937 148.569 111.746C148.383 111.425 148.197 111.103 148.011 110.781C147.782 111.13 147.553 111.479 147.323 111.828C146.426 111.253 146.371 110.92 145.338 111.131C145.096 111.226 144.848 111.213 144.593 111.091C144.532 111.269 144.472 111.446 144.411 111.623C144.387 112.068 144.251 112.215 144.006 112.064C143.799 111.991 143.613 111.881 143.447 111.733C142.764 111.784 141.891 111.96 141.158 111.863C140.875 111.826 139.101 110.909 138.97 111.051ZM159.871 99.0763C159.951 99.1974 160.031 99.318 160.112 99.439C159.003 100.012 158.742 99.6832 158.628 98.5321C159.169 98.5422 159.262 99.4752 159.871 99.0763ZM160.558 98.4009C161.092 98.6316 161.704 99.0845 162.207 98.4777C162.545 99.4411 160.031 100.756 160.558 98.4009ZM164.006 98.8266C165.127 99.5682 162.438 98.972 162.442 98.9732C162.926 98.5361 163.447 98.4874 164.006 98.8266ZM173.648 94.6902C174.033 96.5894 175.093 96.5354 176.804 95.6524C179.3 94.3648 179.722 92.2564 179.896 89.7386C180.063 87.3244 180.365 86.3898 182.907 86.8938C184.682 87.2456 186.184 86.9499 187.973 86.9016C189.882 86.85 190.555 87.1355 190.709 89.0591C190.863 90.9851 191.213 92.4477 192.641 93.9136C194.092 95.4038 196.028 96.2937 197.914 97.1276C198.884 97.5557 199.795 98.0167 200.868 98.1097C201.284 98.1458 203.448 97.8777 203.493 98.5483C203.527 99.0524 200.53 100.474 200.212 100.643C198.822 101.383 197.436 102.047 195.917 102.496C192.424 103.527 188.72 103.588 185.102 103.526C179.268 103.426 171.205 101.01 167.716 95.9428C169.694 95.5252 171.671 95.1077 173.648 94.6902ZM173.125 78.2446C172.202 77.4863 171.604 76.3405 170.837 75.4425C170.45 74.9896 170.167 74.8454 169.799 74.6188C169.412 74.3799 169.193 74.7179 168.87 74.1565C168.035 72.7065 170.612 70.666 167.878 70.1079C166.953 69.9186 164.727 70.6363 164.457 69.3386C164.075 67.504 167.652 67.3842 168.493 66.4528C170.167 64.6015 169.031 61.4631 170.05 59.3275C171.015 57.3044 173.506 56.9449 175.471 56.3369C178.21 55.4905 180.982 54.9994 183.763 54.3219C185.708 53.8483 188.938 51.9459 190.742 53.627C187.959 54.2318 189.577 55.1814 191.432 55.7171C193.533 56.3247 195.759 56.5615 197.936 56.7309C200.177 56.9047 202.461 56.938 204.675 56.5006C206.723 56.096 209.01 54.3536 211.157 54.8C209.966 56.828 206.417 57.9356 204.26 58.4668C203.161 58.7373 202.458 58.6528 202.606 59.994C202.748 61.2937 203.902 62.5971 204.163 63.9513C204.508 65.7433 204.207 67.3903 203.555 69.0754C202.914 70.7338 202.765 70.9503 203.325 72.5347C204.198 75.0018 202.322 77.7288 200.588 79.5203C193.576 86.7647 180.156 84.0206 173.125 78.2446ZM190.943 34.9483C190.971 35.0222 190.947 34.9942 190.943 34.9483V34.9483ZM193.127 53.2306C192.836 53.443 191.161 53.889 191.232 53.2484C191.325 52.3898 192.834 52.7001 193.127 53.2306ZM196.943 35.8898C196.55 35.603 195.45 35.7208 196.255 34.6339C196.516 35.112 196.73 35.5007 196.943 35.8898ZM170.533 29.0191C171.034 27.7454 171.588 26.5602 171.814 25.204C171.954 24.3685 171.676 23.4145 172.87 23.2833C171.349 22.6342 171.334 20.0721 171.244 18.744C171.12 16.915 170.53 14.466 171.352 12.7637C172.194 11.0149 173.331 11.0438 173.675 13.1265C173.809 13.942 173.295 14.2057 173.198 14.7736C173.007 15.897 173.387 15.6507 174.128 14.7949C174.433 15.6648 174.55 16.972 175.794 16.9167C175.711 16.6814 175.235 16.1625 175.394 15.8702C175.639 15.4215 176.833 16.1072 176.984 16.211C178.076 16.9579 178.312 17.6398 177.534 18.5819C178.611 18.6956 177.707 19.6189 178.403 19.8593C179.463 20.2265 178.752 18.4873 178.637 18.1814C179.282 18.428 179.499 18.7099 179.908 19.209C180.148 19.5535 180.367 19.9113 180.564 20.2813C180.784 20.9572 181.236 21.1261 181.921 20.7894C183.295 21.2114 185.192 21.1452 186.423 21.8832C186.986 22.2199 187.189 22.9571 187.659 23.237C188.188 23.5521 188.896 23.4092 189.464 23.607C189.256 24.0692 189.425 24.3194 189.968 24.3584C190.39 24.3962 190.799 24.4892 191.195 24.6374C191.49 24.4193 191.812 24.2467 192.159 24.1216C192.393 24.5241 192.723 24.6236 193.15 24.4209C194.417 24.6533 195.025 25.1224 195.831 25.8238C196.553 26.4534 195.965 26.5046 196.757 26.4485C197.075 26.4262 197.633 25.8977 198.36 26.0009C198.78 26.0805 199.183 26.2072 199.572 26.3799C199.993 26.732 200.439 26.7763 200.912 26.5131C201.679 26.8798 201.754 27.5305 202.69 27.6195C203.724 27.7182 203.391 26.4554 204.102 28.236C205.058 26.3482 205.409 29.3558 206.397 29.5987C207.42 29.8505 207.53 29.0382 208.406 29.9257C208.669 30.1917 208.654 30.6312 208.949 30.9131C209.432 31.3745 210.085 31.2823 210.505 31.9118C210.271 31.5605 210.56 33.1571 210.555 33.1043C210.62 33.8086 209.981 34.5978 211.291 34.5377C211.276 34.6116 210.647 35.5096 210.524 35.4081C210.494 35.3057 210.468 35.2017 210.449 35.0965C210.308 35.1558 210.246 36.0112 210.271 36.1623C210.383 36.1794 210.428 36.0986 210.408 35.9198C210.193 36.5795 210.517 36.9986 210.103 37.6249C209.839 38.025 209.114 38.326 208.729 38.5729C207.8 39.1692 206.891 39.7674 205.985 40.4023C203.872 41.8823 201.506 43.6674 198.845 43.9761C200.181 42.6914 207.87 37.8296 204.014 36.434C203.298 36.1753 201.996 35.9304 201.248 35.876C200.317 35.8086 199.355 36.3301 198.329 36.0043C197.091 35.6124 197.557 34.4727 196.801 34.0637C195.195 33.1965 195.574 35.2363 195.068 35.7704C194.537 35.2249 194.651 34.9593 193.812 34.9101C192.961 34.8598 192.758 35.6302 191.765 35.1502C190.396 34.4889 191.12 33.1713 189.179 33.1405C189.211 32.8513 189.493 32.043 189.122 31.8176C188.623 32.4516 189.009 33.1608 188.546 33.7712C188.314 34.0775 187.81 34.3216 187.442 34.4207C186.582 34.6522 186.459 35.0953 186.599 33.8265C185.961 34.9515 184.005 34.4889 182.841 34.3756C180.949 34.1916 178.939 33.8411 177.125 33.2473C175.448 32.6977 174.552 31.7538 173.168 30.8948C172.646 30.5698 172.396 30.6941 171.646 30.4923C170.906 30.2933 170.184 29.9074 170.533 29.0191ZM174.525 9.09729C174.81 8.92881 175.015 11.4424 174.669 11.912C174.035 10.9307 172.912 9.49119 174.525 9.09729ZM175.437 8.09463C176.355 7.28088 175.717 9.3827 175.549 9.73533C175.209 9.52181 174.869 9.30825 174.528 9.09473C174.962 8.83397 175.071 8.4192 175.437 8.09463ZM210.088 4.70731C218.573 6.45056 226.981 9.70897 233.787 15.0714C239.986 19.9556 244.361 26.8855 246.814 34.257C249.36 41.9083 248.505 50.3972 242.447 56.2532C239.256 59.3376 235.042 61.1987 231.025 63.0146C229.101 63.8847 227.119 64.6093 225.188 65.4594C223.8 66.0698 222.106 67.0462 220.523 66.8773C221.331 66.045 222.503 66.028 223.48 65.5195C224.662 64.9041 225.626 63.7238 226.644 62.8806C227.655 62.0435 229.897 59.4075 231.45 60.0456C231.235 58.6411 232.869 57.9892 233.606 57.0631C234.384 56.0835 234.44 54.9377 235.876 54.6172C234.334 53.4361 234.806 51.2091 235.142 49.6015C235.571 47.5455 235.769 45.658 235.938 43.5659C236.243 39.7942 236.489 34.9893 234.36 31.6738C233.669 30.5971 232.79 29.6076 232.173 28.4891C231.43 27.1414 231.594 25.9554 231.594 24.4778C230.236 25.3714 229.95 23.5497 229.376 22.6618C228.946 21.9957 228.38 21.6237 228.241 20.7854C228.14 20.1757 228.817 20.0725 228.446 19.4332C227.991 19.7691 227.81 20.2898 227.58 20.7732C227.16 20.6091 227.655 20.0372 227.415 19.8516C227.408 19.8463 226.598 19.5023 226.639 19.5518C226.118 18.9056 225.95 17.8334 225.695 17.0643C224.741 17.5373 224.92 17.4816 223.855 16.6912C223.668 16.5521 222.732 15.9132 222.643 15.7043C222.232 14.7277 222.953 15.3062 222.751 14.7C222.172 12.9589 218.92 13.2882 218.662 10.6793C217.077 11.6649 216.472 10.2683 215.535 9.27507C214.574 8.25759 212.962 7.86621 213.049 6.25231C212.549 6.41949 212.05 6.58622 211.552 6.75255C211.811 5.2633 209.551 5.35814 208.733 4.60268C209.187 4.6082 209.639 4.64309 210.088 4.70731ZM211.38 96.9468C212.167 96.2584 211.928 97.1747 212.434 97.0699C212.867 96.9801 212.952 96.6601 213.367 96.5618C215.077 96.1572 217.633 96.6653 219.431 96.578C221.513 96.4773 225.083 96.9005 226.075 99.2859C226.673 100.722 225.761 100.233 224.755 100.127C223.976 100.044 223.283 100.199 222.512 100.191C222.131 100.249 221.751 100.243 221.372 100.173C221.188 100.054 221.079 99.8866 221.045 99.6705C219.972 99.5117 218.832 100.133 217.644 100.164C216.058 100.205 214.649 99.9078 213.444 98.8594C212.965 99.5585 212.639 99.9053 211.777 99.9833C211.755 99.9853 210.913 99.6539 210.783 99.6206C210.61 99.5767 210.174 99.9309 209.842 99.8298C210.432 98.9102 210.517 97.7019 211.38 96.9468ZM319.692 105.248C319.972 104.294 320.206 103.328 320.461 102.369C324.375 106.732 327.801 112.572 329.343 118.167C330.344 121.802 331.902 128.39 327.129 130.266C323.24 131.793 321.072 126.318 320.088 123.621C317.916 117.667 317.916 111.305 319.692 105.248ZM144.554 36.8877C144.604 36.8776 142.02 38.3491 142.871 37.1578C143.213 36.6786 144.511 36.3418 145.086 36.3418L144.554 36.8877ZM142.068 37.5112C141.769 37.7573 141.467 38.0006 141.163 38.2407C140.87 37.7882 140.577 37.3353 140.284 36.8829C140.861 36.6448 143.31 36.4661 142.068 37.5112ZM140.247 83.2603C139.706 82.9017 139.277 83.0921 139.115 83.6941C139.115 83.0954 139.433 81.7039 139.923 81.5418C140.239 81.4366 138.871 79.8522 139.256 79.4375C140.234 79.9858 139.648 80.511 139.935 81.2189C140.064 81.5382 140.452 81.8404 140.537 82.0857C140.682 82.5024 141.265 83.9345 140.247 83.2603ZM137.597 79.6946C137.044 79.8335 138.013 80.7283 138.012 81.1239C138.012 81.4232 137.645 81.6527 137.493 82.0621C137.165 82.9488 137.73 83.5479 136.8 84.2245C136.8 82.2814 135.468 77.1325 138.028 76.1857C136.779 75.2231 137.805 74.1119 138.784 75.2642C139.725 76.3718 139.125 79.312 137.597 79.6946ZM136.264 72.0266C135.761 70.2801 134.246 69.6692 132.516 69.7728C132.582 68.8784 133.274 67.5893 133.774 69.2009C133.979 68.7245 134.122 68.1031 134.59 67.7875C135.38 70.2103 139.316 71.549 136.865 74.1744C136.665 73.4588 136.47 72.7415 136.264 72.0266ZM131.69 69.9028C122.577 70.5498 109.782 72.4011 102.488 65.5621C97.733 61.1028 97.9869 54.1586 101.83 49.2043C104.023 46.3769 107.017 44.3863 110.024 42.49C111.184 41.7576 112.166 41.2747 113.44 40.8539C113.646 40.832 113.84 40.8771 114.022 40.9892C114.094 40.6878 114.267 40.4652 114.542 40.3194C115.034 40.0619 115.735 39.9697 116.019 39.4348C115.716 40.4396 115.561 41.4741 115.45 42.5135C115.204 42.2337 114.959 41.9538 114.714 41.674C114.509 43.5675 112.494 42.4213 111.291 42.6577C112.083 43.7316 112.65 44.1215 112.718 45.5407C112.128 44.4737 110.894 43.7722 109.746 43.4286C110.369 45.2332 110.81 46.3042 110.182 48.2831C109.424 47.8594 109.373 46.842 108.454 46.5983C108.211 47.7782 108.169 49.0877 107.858 50.2327C105.504 49.1815 105.733 52.0125 106.679 53.4133C107.181 54.1586 107.428 55.0213 107.877 55.7366C108.977 57.4916 108.141 54.8674 109.364 54.9917C109.089 56.8426 108.993 57.027 110.377 58.3823C111.727 59.704 112.428 61.5378 113.872 62.7795C114.29 62.2563 113.633 61.7088 113.575 61.208C114.919 61.4286 115.548 62.7478 116.84 61.5793C117.403 62.6544 118.013 63.8383 119.363 64.0589C118.471 62.3989 121.076 63.5248 121.744 63.7604C122.25 63.9391 123.158 64.0812 123.353 64.1499C124.454 64.539 123.699 63.8408 124.367 65.1165C125.348 64.8265 125.718 64.0301 126.891 64.7031C127.845 65.2506 127.847 66.188 128.066 67.1486C128.293 66.5202 128.522 65.8923 128.774 65.2725C129.03 65.3781 130.104 66.5353 129.986 66.5406C132.5 66.4199 132.411 67.9479 131.69 69.9028ZM118.894 38.5798C119.399 38.2329 120.015 38.6948 120.582 38.5705C121.367 38.3991 121.812 37.7411 122.689 37.6704C122.445 38.4336 121.987 38.3621 121.6 38.9612C121.468 39.1655 121.537 39.6553 121.42 39.7731C120.437 40.7581 120.098 39.9543 119.095 39.2086C119.182 40.1078 119.359 40.3917 118.493 40.633C117.71 40.8519 116.417 40.0465 116.022 39.4287C116.355 38.7764 118.29 38.9949 118.894 38.5798ZM125.148 37.1741C125.999 37.2537 124.973 39.7118 123.754 37.3276C124.213 37.2297 124.678 37.1785 125.148 37.1741ZM129.523 36.6993C130.866 36.4312 135.342 35.1823 135.84 37.2273C135.93 37.1765 136.263 36.0218 136.418 36.1627C137.037 36.7273 137.107 37.4755 137.059 38.2593C136.31 36.7314 136.576 38.0737 136.069 37.9689C135.936 37.9413 135.733 38.1838 135.398 38.0839C134.958 37.9523 134.642 37.0356 134.364 36.7253C133.902 37.3715 133.328 38.2041 132.402 38.1481C131.746 38.1083 130.689 36.4556 131.539 38.265C131.04 38.1038 130.463 37.7386 129.907 37.8118C129.285 37.8942 128.962 38.4949 128.379 38.592C127.087 38.8065 126.892 37.5892 126.053 36.9279C127.21 36.8621 128.381 36.9271 129.523 36.6993ZM137.643 36.6794C137.738 36.2602 138.912 36.0908 139.211 36.2241C139.941 36.5486 139.671 36.9771 139.537 37.6899C138.996 37.4389 138.454 37.1883 137.912 36.9373C138.721 38.2118 137.256 38.3966 137.643 36.6794ZM364.974 111.331C364.878 108.277 364.787 105.17 363.996 102.196C363.443 100.115 362.083 96.3839 359.511 96.0228C355.633 95.4777 353.485 102.982 352.398 105.558C352.181 102.525 352.371 99.2973 351.201 96.4188C350.264 94.1118 347.897 91.927 345.858 94.5176C344.044 96.8233 343.696 100.227 343.218 103.001C342.6 106.595 342.228 110.217 341.776 113.834C340.005 110.482 339.695 106.645 338.295 103.162C336.973 99.8749 334.894 96.7356 332.891 93.812C331.256 91.4238 329.266 89.1785 326.704 87.7188C324.474 86.4483 320.574 85.0738 318.448 87.1839C316.674 88.9446 316.952 91.3007 317.045 93.5229C317.086 94.5123 317.244 95.1906 316.355 95.6893C315.919 95.9343 315.236 95.8075 314.756 95.9383C313.983 96.1499 313.389 96.5082 312.736 96.9842C308.149 100.322 306.034 106.336 305.38 111.698C304.552 118.493 307.257 124.317 309.585 130.534C309.956 131.524 311.135 133.626 310.972 134.732C310.793 135.944 309.24 135.976 308.191 136.001C305.025 136.077 301.715 135.846 298.565 135.557C291.064 134.87 283.568 131.335 276.852 128.179C275.627 127.603 273.893 127.273 272.893 126.366C271.953 125.514 271.705 124.147 270.893 123.169C268.901 120.77 267.632 118.722 264.699 117.272C261.712 115.796 258.664 114.432 255.75 112.815C252.146 110.815 248.817 108.281 245.363 106.042C238.945 101.88 232.57 97.3189 225.766 93.7804C222.604 92.1358 219.07 91.8698 215.788 90.5233C212.591 89.2122 208.667 89.2106 205.331 90.0384C203.705 90.4421 202.6 91.3982 201.105 92.0225C199.354 92.754 197.925 91.9465 196.384 91.0733C194.029 89.7394 191.695 87.5657 195.048 86.1266C196.185 85.638 197.611 85.4532 198.604 84.6855C199.664 83.8675 200.514 82.3582 201.375 81.3335C203.29 79.0553 204.434 76.4331 207.236 75.0164C210.336 73.4498 214.009 73.0233 217.314 71.9994C220.894 70.8906 224.4 69.5718 227.914 68.2769C234.245 65.9443 240.826 63.4257 245.375 58.2901C249.299 53.8601 251.009 48.1413 250.85 42.3332C250.527 30.4598 244.03 18.4093 234.708 10.9855C223.278 1.88235 208.736 -1.1532 194.298 -0.994101C187.521 -0.919205 179.434 -0.0510288 173.78 3.9795C168.897 7.46081 168.084 13.5498 168.811 19.0462C169.105 21.2768 170.113 24.2207 168.506 26.1861C167.607 27.286 165.993 27.5581 164.781 28.2437C163.259 29.1052 161.916 29.931 160.192 30.3863C152.868 32.3229 145.153 31.6486 137.665 31.5414C125.19 31.3627 112.403 34.6693 103.097 43.2747C95.5823 50.2233 93.3286 63.3266 102.494 70.1006C109.899 75.5732 121.515 74.9713 130.246 74.0168C132.954 73.7203 134.816 73.2898 134.822 76.533C134.829 80.0756 134.229 83.7782 135.153 87.2557C136.607 92.7333 141.983 92.8636 146.736 91.6841C149.244 91.0619 151.668 90.1261 154.05 89.146C157.543 87.7086 160.745 85.5949 164.195 84.16C166.534 83.1876 168.285 86.3325 170.359 84.1522C170.743 83.7493 170.813 83.149 171.391 82.9427C172.298 82.6198 173.817 83.7522 174.612 84.1104C175.802 84.6465 177.001 85.0409 177.477 86.3325C177.922 87.5405 177.727 89.4616 177.301 90.6533C176.375 93.2442 173.882 92.7321 171.607 92.5586C167.638 92.2564 163.695 91.6151 159.728 91.3458C156.168 91.1046 152.835 92.1456 149.764 93.8644C143.315 97.4736 138.039 103.215 132.448 107.936C129.57 110.366 126.788 112.99 123.659 115.106C122.298 116.026 120.824 116.872 119.642 118.015C118.468 119.149 118.339 120.181 117.938 121.69C117.223 124.377 113.673 125.691 111.454 127.109C108.317 129.113 104.99 130.528 101.472 131.758C94.0231 134.363 86.515 136.182 78.7268 137.526C74.9136 138.185 71.1323 138.618 67.2822 138.973C63.9632 139.279 60.4342 140.28 57.1192 139.481C58.0739 137.965 59.7658 137.054 61.0835 135.883C62.782 134.372 64.2266 132.582 65.5123 130.727C68.0145 127.115 69.7699 123.24 70.1727 118.86C70.5362 114.917 70.1196 110.201 67.6897 106.871C66.8503 105.72 65.1896 105.407 64.4386 104.371C63.6914 103.341 63.9764 101.567 63.5674 100.366C62.5264 97.3107 59.4368 93.5249 56.7176 91.7504C53.7678 89.8247 49.4526 89.1176 46.0452 90.1208C39.7323 91.9798 35.8544 98.5845 32.9656 103.922C31.3878 100.672 34.0302 95.849 30.9476 93.187C28.3475 90.9413 26.2839 95.2913 25.4143 97.1523C21.3322 105.889 20.405 115.154 18.6948 124.502C17.9978 123.829 18.355 122.103 18.4206 121.301C18.5426 119.807 18.5309 118.342 18.5343 116.842C18.5426 113.053 19.262 109.247 18.9321 105.462C18.7417 103.273 18.0289 98.6592 14.7814 99.3862C12.0273 100.003 10.3022 103.794 9.43683 106.112C8.18865 109.456 7.90047 112.766 7.97818 116.298C8.0641 120.2 7.30462 124.039 7.12061 127.936C6.76299 135.506 7.11626 143.009 9.33485 150.315C12.9678 162.278 21.321 172.218 32.4694 178.22C38.6117 181.528 45.4258 183.62 52.4315 184.07C56.2281 184.314 59.8932 183.872 63.6574 183.487C67.3718 183.108 71.1058 182.933 74.814 182.488C83.0719 181.496 91.1185 178.937 98.6246 175.493C102.576 173.68 106.291 171.454 110.177 169.521C111.737 168.746 112.79 167.776 114.121 166.697C115.441 165.629 115.806 165.545 117.306 165.545C116.866 164.392 118.151 164.037 118.722 163.308C118.69 163.662 118.658 164.015 118.626 164.368C119.062 163.443 119.468 163.452 119.843 164.395C120.214 163.339 120.489 162.253 120.937 161.224C122.65 162.072 122.505 164.09 124.796 162.617C126.683 161.405 128.417 159.974 130.34 158.786C134.721 156.079 138.498 152.557 142.891 149.881C142.891 152.487 143.079 155.116 142.723 157.709C142.385 160.175 141.445 162.479 140.697 164.84C139.318 169.195 139.222 173.849 137.694 178.16C137.061 179.946 135.415 181.439 134.942 183.177C134.461 184.95 135.573 186.371 133.709 187.535C132.395 188.356 130.752 188.702 129.297 189.198C127.077 189.956 124.97 191.025 122.809 191.932C112.673 196.183 102.787 200.513 93.3967 206.23C84.485 211.655 75.4372 217.258 67.2507 223.7C60.1458 229.292 52.9638 236.522 51.2341 245.643C49.5559 254.491 54.0275 263.988 63.006 266.902C67.6743 268.417 72.952 268.229 77.8136 268.295C83.0449 268.366 88.5886 267.131 93.7319 266.238C99.1635 265.295 104.502 263.819 109.95 262.977C115.176 262.168 119.97 260.362 125.111 259.249C130.587 258.064 136.203 257.42 141.709 256.354C144.188 255.874 146.616 255.165 149.102 254.721C151.823 254.234 154.574 254.051 157.269 253.407C162.495 252.157 167.5 250.141 172.749 248.977C175.109 248.454 177.433 247.754 179.794 247.265C181.968 246.814 183.662 245.618 185.84 246.601C187.6 247.394 189.004 248.755 190.67 249.703C192.83 250.933 195.108 252.034 197.36 253.092C201.886 255.218 206.579 256.688 211.311 258.283C216.282 259.96 221.163 261.872 226.312 262.98C231.591 264.115 236.977 264.431 242.293 265.329C253.179 267.167 263.973 267.992 275.023 268.059C280.608 268.093 286.193 267.445 291.765 267.522C296.699 267.59 300.987 268.678 305.498 266.111C312.706 262.009 321.066 255.829 320.889 246.853C320.728 238.724 315.747 230.957 311.075 224.545C305.401 216.758 297.311 211.275 289.383 205.904C280.933 200.18 271.441 196.225 262.56 191.228C258.018 188.673 253.829 185.924 248.897 184.108C246.543 183.241 244.246 182.236 241.919 181.303C240.047 180.552 237.344 180.137 235.741 178.892C234.741 178.114 234.645 176.937 234.381 175.782C233.797 173.224 232.878 170.799 231.987 168.332C230.268 163.57 229.125 158.719 228.386 153.724C227.682 148.963 226.118 144.011 226.928 139.171C232.254 144.216 237.728 149.065 243.178 153.975C245.221 155.815 247.225 157.694 249.278 159.523C250.82 160.897 252.747 162.936 254.896 163.344C257.64 163.864 256.637 160.893 258.521 160.432C259.673 160.151 263.146 163.016 264.056 163.581C269.827 167.168 276.216 169.44 282.563 171.882C289.218 174.441 296.063 176.715 303.224 177.359C309.839 177.955 316.603 177.191 322.987 175.426C335.699 171.913 345.054 163.576 351.92 152.77C359.742 140.456 365.434 126.031 364.974 111.331Z" fill="black"/>
<path fill-rule="evenodd" clip-rule="evenodd" d="M170.68 84.4861C170.678 84.4897 170.659 84.5295 170.659 84.5295C170.682 84.5135 170.689 84.4992 170.68 84.4861Z" fill="black"/>
<path fill-rule="evenodd" clip-rule="evenodd" d="M171.294 84.6453C171.246 84.253 171.143 83.8691 170.986 83.493C170.565 84.1461 170.188 84.426 170.741 85.1177C170.925 84.9601 171.109 84.8029 171.294 84.6453Z" fill="black"/>
<path fill-rule="evenodd" clip-rule="evenodd" d="M200.609 177.999C201.079 177.508 200.256 177.323 199.943 177.317C199.974 177.843 199.708 179.104 200.443 179.348C200.267 178.872 200.322 178.422 200.609 177.999Z" fill="black"/>
<path fill-rule="evenodd" clip-rule="evenodd" d="M188.19 75.3872C187.381 76.9168 189.169 77.3912 190.203 76.6524C190.982 76.0968 191.442 74.6805 191.57 73.7719C191.984 70.8321 189.882 68.0336 188.834 65.4248C188.564 64.7506 188.193 62.4379 187.321 62.3745C186.319 62.3014 186.245 64.4313 186.232 64.9809C186.194 66.638 186.642 68.326 187.167 69.8902C187.733 71.5766 189.136 73.6009 188.19 75.3872Z" fill="black"/>
<path fill-rule="evenodd" clip-rule="evenodd" d="M192.038 69.2529C195.148 71.9637 197.636 67.4487 197.418 64.7782C197.365 64.1166 196.908 61.6767 195.626 62.5646C194.982 63.0106 195.531 64.4602 195.224 65.0966C193.737 68.1819 192.304 63.396 191.303 63.0203C190.084 62.5626 189.962 64.13 189.964 64.9679C189.967 66.6311 190.775 68.1514 192.038 69.2529Z" fill="black"/>
<path fill-rule="evenodd" clip-rule="evenodd" d="M180.75 69.6741C181.483 68.5449 182.383 67.0304 182.483 65.6774C182.637 63.5747 181.386 63.7502 180.355 65.2173C179.628 66.2538 179.082 68.0117 177.476 67.5746C175.493 67.0361 176.099 64.4252 174.988 63.1848C172.185 66.8711 177.49 74.6983 180.75 69.6741Z" fill="black"/>
<path fill-rule="evenodd" clip-rule="evenodd" d="M184.952 80.9553C186.112 81.2007 189.135 81.1105 188.087 79.3721C186.766 77.1829 182.373 80.4095 184.952 80.9553Z" fill="black"/>
<path fill-rule="evenodd" clip-rule="evenodd" d="M225.574 15.6636C225.786 15.0448 225.494 14.9324 224.988 14.4451C224.509 14.8781 225.123 15.3337 225.574 15.6636Z" fill="black"/>
<path fill-rule="evenodd" clip-rule="evenodd" d="M247.201 127.744C247.966 127.863 248.213 127.467 247.939 126.556C246.733 126.479 246.487 126.875 247.201 127.744Z" fill="black"/>
<path fill-rule="evenodd" clip-rule="evenodd" d="M205.429 32.1335C206.273 32.5113 205.95 33.2862 205.935 33.941C206.37 33.4787 207.248 32.6331 206.89 31.969C206.34 30.9451 204.9 31.8971 205.429 32.1335Z" fill="black"/>
<path fill-rule="evenodd" clip-rule="evenodd" d="M176.687 19.244C176.559 18.9983 176.43 18.7526 176.302 18.5068C175.778 18.9187 174.969 20.0072 175.801 20.5377C176.143 20.1319 176.438 19.701 176.687 19.244Z" fill="black"/>
<path fill-rule="evenodd" clip-rule="evenodd" d="M186.811 26.4693C187.861 27.2751 187.358 24.8011 187.326 24.5992C187.17 24.8892 186.281 26.0619 186.811 26.4693Z" fill="black"/>
<path fill-rule="evenodd" clip-rule="evenodd" d="M186.23 25.213C186.15 25.0087 186.069 24.804 185.989 24.5992C185.563 24.9851 185.042 25.7727 185.745 26.2239C185.938 25.9079 186.099 25.5708 186.23 25.213Z" fill="black"/>
<path fill-rule="evenodd" clip-rule="evenodd" d="M192.897 33.7083C192.983 33.7855 193.069 33.863 193.154 33.941C193.5 33.257 193.107 32.7437 192.453 32.7225C192.499 33.1064 192.648 33.4349 192.897 33.7083Z" fill="black"/>
<path fill-rule="evenodd" clip-rule="evenodd" d="M164.766 110.639C165.182 110.361 165.56 110.044 165.9 109.689C164.668 108.951 165.406 110.55 163.923 109.568C163.603 110.001 164.125 110.969 164.766 110.639Z" fill="black"/>
<path fill-rule="evenodd" clip-rule="evenodd" d="M216.559 177.723C217.027 177.019 217.112 177.039 216.472 176.505C215.938 177.375 215.993 177.151 216.559 177.723Z" fill="black"/>
<path fill-rule="evenodd" clip-rule="evenodd" d="M118.604 65.6531C118.859 65.9134 119.114 66.1742 119.369 66.4341C119.488 66.0933 120.138 65.1299 119.697 64.8094C119.333 65.0905 118.968 65.3716 118.604 65.6531Z" fill="black"/>
<path fill-rule="evenodd" clip-rule="evenodd" d="M127.679 68.2302C127.271 68.1636 126.297 67.8728 126.072 68.2436C126.668 68.7215 128.012 68.285 127.679 68.2302Z" fill="black"/>
</g>
<defs>
<clipPath id="clip0">
<rect width="415" height="401" fill="white"/>
</clipPath>
</defs>
</svg>
