<svg width="144" height="415" viewBox="0 0 144 415" fill="none" xmlns="http://www.w3.org/2000/svg">
<path fill-rule="evenodd" clip-rule="evenodd" d="M-45.6166 24.4662C-8.90373 31.3207 27.8442 33.9157 59.8269 53.5623C94.2453 74.705 132.084 99.7957 141.808 139.599C151.393 178.834 127.57 217.501 108.541 252.962C92.6092 282.651 65.2945 300.967 42.1886 325.242C12.6128 356.314 -3.26144 412.377 -45.6166 414.919C-87.5022 417.433 -106.689 360.546 -141.254 336.253C-177.26 310.947 -230.52 309.271 -251.589 270.158C-273.566 229.359 -261.983 178.885 -250.263 133.883C-237.957 86.6304 -225.768 30.8345 -183.356 8.15865C-141.379 -14.2848 -92.2244 15.7643 -45.6166 24.4662Z" fill="#03CEA4" fill-opacity="0.55"/>
</svg>
