<svg width="81" height="80" viewBox="0 0 81 80" fill="none" xmlns="http://www.w3.org/2000/svg">
<path d="M58.395 6.66675H25.0617C15.8569 6.66675 8.39502 14.1287 8.39502 23.3334V56.6668C8.39502 65.8715 15.8569 73.3334 25.0617 73.3334H58.395C67.5998 73.3334 75.0617 65.8715 75.0617 56.6668V23.3334C75.0617 14.1287 67.5998 6.66675 58.395 6.66675Z" stroke="black" stroke-width="2" stroke-linecap="round" stroke-linejoin="round"/>
<path d="M55.0616 37.9C55.473 40.6742 54.9992 43.5074 53.7075 45.9967C52.4158 48.4861 50.3721 50.5047 47.8671 51.7656C45.362 53.0265 42.5231 53.4654 39.7543 53.0198C36.9854 52.5743 34.4275 51.267 32.4444 49.2839C30.4614 47.3008 29.1541 44.7429 28.7085 41.9741C28.263 39.2052 28.7019 36.3663 29.9627 33.8613C31.2236 31.3562 33.2423 29.3125 35.7316 28.0208C38.2209 26.7292 41.0542 26.2553 43.8283 26.6667C46.658 27.0863 49.2778 28.4049 51.3006 30.4277C53.3234 32.4505 54.642 35.0703 55.0616 37.9Z" stroke="black" stroke-width="2" stroke-linecap="round" stroke-linejoin="round"/>
<path d="M59.0616 21.6667H59.095" stroke="black" stroke-width="2" stroke-linecap="round" stroke-linejoin="round"/>
</svg>
