<svg width="80" height="80" viewBox="0 0 80 80" fill="none" xmlns="http://www.w3.org/2000/svg">
<path d="M77.6667 10.0306C74.4747 12.2822 70.9404 14.0043 67.2 15.1306C65.1925 12.8223 62.5245 11.1862 59.5568 10.4437C56.5891 9.70112 53.465 9.88791 50.607 10.9788C47.7489 12.0696 45.2948 14.0119 43.5766 16.543C41.8584 19.074 40.959 22.0717 41 25.1306V28.4639C35.1421 28.6158 29.3376 27.3166 24.1034 24.6821C18.8692 22.0475 14.3678 18.1594 11 13.3639C11 13.3639 -2.33329 43.3639 27.6667 56.6973C20.8018 61.3571 12.6239 63.6937 4.33337 63.3639C34.3334 80.0306 71 63.3639 71 25.0306C70.997 24.1021 70.9077 23.1759 70.7334 22.2639C74.1354 18.9089 76.5361 14.673 77.6667 10.0306V10.0306Z" stroke="black" stroke-width="2" stroke-linecap="round" stroke-linejoin="round"/>
</svg>
